<?xml version="1.0" standalone="no"?>
<!DOCTYPE svg PUBLIC "-//W3C//DTD SVG 1.1//EN" "http://www.w3.org/Graphics/SVG/1.1/DTD/svg11.dtd" >
<svg xmlns="http://www.w3.org/2000/svg">
<metadata>
Created by FontForge 20120731 at Tue Apr 18 15:45:00 2017
 By admin
</metadata>
<defs>
<font id="aticon" horiz-adv-x="1024" >
  <font-face 
    font-family="aticon"
    font-weight="500"
    font-stretch="normal"
    units-per-em="1024"
    panose-1="2 0 6 3 0 0 0 0 0 0"
    ascent="896"
    descent="-128"
    x-height="792"
    bbox="17 -111 1007.22 879"
    underline-thickness="0"
    underline-position="0"
    unicode-range="U+0078-E648"
  />
<missing-glyph 
 />
    <glyph glyph-name=".notdef" 
 />
    <glyph glyph-name=".notdef" 
 />
    <glyph glyph-name=".null" horiz-adv-x="0" 
 />
    <glyph glyph-name="nonmarkingreturn" horiz-adv-x="341" 
 />
    <glyph glyph-name="x" unicode="x" horiz-adv-x="1001" 
d="M281 543q-27 -1 -53 -1h-83q-18 0 -36.5 -6t-32.5 -18.5t-23 -32t-9 -45.5v-76h912v41q0 16 -0.5 30t-0.5 18q0 13 -5 29t-17 29.5t-31.5 22.5t-49.5 9h-133v-97h-438v97zM955 310v-52q0 -23 0.5 -52t0.5 -58t-10.5 -47.5t-26 -30t-33 -16t-31.5 -4.5q-14 -1 -29.5 -0.5
t-29.5 0.5h-32l-45 128h-439l-44 -128h-29h-34q-20 0 -45 1q-25 0 -41 9.5t-25.5 23t-13.5 29.5t-4 30v167h911zM163 247q-12 0 -21 -8.5t-9 -21.5t9 -21.5t21 -8.5q13 0 22 8.5t9 21.5t-9 21.5t-22 8.5zM316 123q-8 -26 -14 -48q-5 -19 -10.5 -37t-7.5 -25t-3 -15t1 -14.5
t9.5 -10.5t21.5 -4h37h67h81h80h64h36q23 0 34 12t2 38q-5 13 -9.5 30.5t-9.5 34.5q-5 19 -11 39h-368zM336 498v228q0 11 2.5 23t10 21.5t20.5 15.5t34 6h188q31 0 51.5 -14.5t20.5 -52.5v-227h-327z" />
    <glyph glyph-name="arrow-up" unicode="&#xe636;" 
d="M537 869q-10 10 -25 10q-14 0 -25 -10l-460 -460q-10 -11 -10 -25t10 -25q10 -10 25 -10v0v0q15 0 25 10l400 401v-836q0 -15 10 -25t25 -10h1q14 0 24 10t10 25v0v836l401 -401q10 -10 24.5 -10t24.5 10.5t10 24.5t-10 25l-460 460v0z" />
    <glyph glyph-name="add" unicode="&#xe637;" 
d="M512.5 879q-100.5 0 -192 -39.5t-158 -105.5t-106 -157.5t-39.5 -192.5t39.5 -192.5t105.5 -157.5t158 -105.5t192 -39.5q101 0 192.5 39.5t158 105.5t105.5 157.5t39 192.5t-39 192.5t-105.5 157.5t-158 105.5t-192 39.5zM512.5 -42q-115.5 0 -213.5 57t-155 155.5
t-57 213.5t57 213.5t155 155.5t213.5 57t213.5 -57t155 -155.5t57 -213.5t-57 -213.5t-155 -155.5t-213.5 -57zM740 423h-193v194q0 15 -10 25t-24.5 10t-25 -10t-10.5 -25v-193h-192q-15 0 -25 -10t-10 -25t10 -25t25 -10h192v-193q0 -14 10.5 -24.5t25 -10.5t24.5 10.5
t10 24.5v193h193q15 0 25 10t10 25t-10 24.5t-25 9.5z" />
    <glyph glyph-name="circel-correct" unicode="&#xe638;" 
d="M308 413q-11 10 -25.5 10t-24.5 -10t-10 -24.5t10 -24.5l161 -161q11 -11 25 -11h2q15 2 25 13l404 483q9 11 7.5 25.5t-11.5 24.5q-11 9 -25.5 7.5t-24.5 -12.5l-380 -454zM773 803q-147 92 -317.5 72.5t-293.5 -142.5q-71 -70 -108 -163t-37 -186.5t37 -186t108 -163.5
q60 -60 162.5 -102.5t186.5 -42.5v0v0q85 0 187.5 42.5t162.5 102.5q124 123 143 294.5t-74 318.5q-7 12 -21 15t-26.5 -4.5t-15.5 -21.5t4 -26q80 -127 63.5 -274t-122.5 -253q-82 -81 -191.5 -110t-219 0t-191.5 110q-61 61 -92.5 140.5t-31.5 160t31.5 160t92.5 140.5
q106 105 253 122t274 -61q12 -8 26 -5t21.5 15.5t4.5 26.5t-16 21z" />
    <glyph glyph-name="cancel" unicode="&#xe639;" 
d="M27.5 -100.5q10.5 -10.5 24.5 -10.5t25 10l435 436l435 -436q11 -10 25 -10t24.5 10.5t10.5 24.5t-10 25l-436 435l436 435q10 11 10 25t-10.5 24.5t-24.5 10.5t-25 -10l-435 -436l-435 436q-11 10 -25 10t-24.5 -10.5t-10.5 -24.5t10 -25l436 -435l-436 -435
q-10 -11 -10 -25t10.5 -24.5z" />
    <glyph glyph-name="circle-left" unicode="&#xe63a;" 
d="M511.5 -111q100.5 0 192 39.5t158 105.5t106 158t39.5 192.5t-39 192t-105.5 158t-158.5 105.5t-192.5 39t-192 -39t-158 -105.5t-105.5 -158t-39 -192t39 -192t105.5 -158t158 -106t192 -39.5zM511.5 810q115.5 0 213.5 -57t155 -155t57 -213.5t-57 -213.5t-155 -155
t-213.5 -57t-213.5 57t-155 155t-57 213.5t57 213.5t155 155t213.5 57zM558 137q11 -10 25.5 -10t24.5 10t10 24.5t-10 25.5l-200 200l200 200q10 11 10 25.5t-10 24.5t-24.5 10t-25.5 -10l-225 -225q-10 -10 -10 -25v0v0q0 -15 10 -25z" />
    <glyph glyph-name="circle-cancel" unicode="&#xe63b;" 
d="M512 -111q100 0 192 39t158 105.5t105.5 158t39.5 192.5t-39.5 192.5t-105.5 158t-158 105.5t-192 39t-192 -39.5t-158 -105.5t-105.5 -158t-39.5 -192t39.5 -192t105.5 -158t158 -105.5t192 -39.5zM512 809q115 0 213 -57t155 -155t57 -213t-57 -213t-155 -155t-213 -57
t-213 57t-155 155t-57 213t57 213t155 155t213 57zM326.5 203.5q10.5 -10.5 24.5 -10.5t25 10l136 137l136 -137q11 -10 25 -10t24.5 10.5t10.5 25t-10 24.5l-137 136l137 136q10 11 10 25.5t-10.5 24.5t-24.5 10t-25 -10l-136 -136l-136 136q-11 10 -25 10t-24.5 -10
t-10.5 -24.5t10 -25.5l137 -136l-137 -136q-10 -10 -10 -24.5t10.5 -25z" />
    <glyph glyph-name="forward" unicode="&#xe63c;" 
d="M497 114q7 -3 14 -3q14 0 24 10l223 229q10 11 10 25.5t-10 25.5l-224 229q-15 16 -37 7q-21 -8 -21 -32v-124l-144 149q-16 16 -38 7q-21 -8 -21 -32v-459q0 -24 21 -32q6 -3 14 -3q14 0 24 10l144 149v-124q-1 -22 21 -32v0zM545 356v163l139 -144l-139 -143v124z
M342 232v287l134 -138v-11z" />
    <glyph glyph-name="down" unicode="&#xe63d;" 
d="M997 630q-10 10 -24.5 10t-25.5 -10l-435 -436l-435 436q-10 10 -24.5 10t-25 -10t-10.5 -24.5t10 -25.5l460 -459q10 -10 24.5 -10t24.5 10l460 459q11 11 11 25.5t-10 24.5z" />
    <glyph glyph-name="info" unicode="&#xe63e;" 
d="M512.5 -111q100.5 0 192 39.5t158 105.5t105.5 157.5t39 192.5t-39 192.5t-105.5 157.5t-158 105.5t-192 39.5t-192 -39.5t-158 -105.5t-106 -157.5t-39.5 -192.5t39.5 -192.5t106 -157.5t158 -105.5t192 -39.5zM512.5 811q115.5 0 213.5 -57t155 -155.5t57 -214
t-57 -213.5t-155 -155t-213.5 -57t-213.5 57t-155 155t-57 213.5t57 214t155 155.5t213.5 57zM430 166q-15 0 -25 -10t-10 -24.5t10 -25t25 -10.5h229q15 0 25 10.5t10 25t-10 24.5t-25 10h-80v308q0 15 -10 25t-25 10h-114q-15 0 -25 -10t-10 -24.5t10 -25t25 -10.5h80
v-273h-80v0zM497 567q23 0 39.5 16.5t16.5 40.5v0q0 23 -16.5 39.5t-39.5 16.5t-39.5 -16.5t-16.5 -39.5v0q0 -24 16.5 -40.5t39.5 -16.5z" />
    <glyph glyph-name="circle-right" unicode="&#xe63f;" 
d="M512 -111q100 0 192 39t158 105.5t105.5 158t39.5 192.5t-39.5 192.5t-105.5 158t-158 105.5t-192 39t-192 -39.5t-158 -105.5t-105.5 -158t-39.5 -192t39.5 -192t105.5 -158t158 -105.5t192 -39.5zM512 809q115 0 213 -57t155 -155t57 -213t-57 -213t-155 -155t-213 -57
t-213 57t-155 155t-57 213t57 213t155 155t213 57zM398 137q10 -10 24.5 -10t24.5 10l225 225q10 10 10 24.5t-10 24.5l-225 225q-10 10 -24.5 10t-24.5 -10t-10 -24.5t10 -24.5l200 -200l-200 -201q-10 -10 -10 -24.5t10 -24.5v0z" />
    <glyph glyph-name="left" unicode="&#xe640;" 
d="M726 -101q10 -10 24.5 -10t24.5 10.5t10 25t-10 24.5l-434 435l434 435q10 10 10 24.5t-10 25t-24.5 10.5t-24.5 -10l-460 -460q-10 -10 -10 -25t10 -25z" />
    <glyph glyph-name="pause" unicode="&#xe641;" 
d="M512 -111q101 0 192.5 39.5t158 105.5t105.5 158t39 192t-39 192t-105.5 158t-158 105.5t-192.5 39.5t-192.5 -39t-158 -105.5t-105.5 -158t-39 -192.5t39 -192.5t105.5 -158t158 -105.5t192.5 -39zM512 810q115 0 213.5 -57t155.5 -155t57 -214t-57 -214t-155 -155
t-214 -57t-214 57t-155 155t-57 214t57 214t155.5 155t213.5 57zM421 127v0q15 0 25 10t10 24v1v452v0q0 15 -10 25t-25 10v0h-1q-14 0 -24 -10t-10 -25v0v-452q0 -15 10 -25t25 -10v0zM603 127h1q14 0 24 10t10 24v1v452v0q0 15 -10 25t-24 10h-1v0q-15 0 -25 -10t-10 -25
v0v-452q0 -15 10 -25t25 -10v0z" />
    <glyph glyph-name="remove" unicode="&#xe642;" 
d="M512 -111q100 0 192 39.5t158 105.5t105.5 158t39.5 192t-39.5 192t-105.5 158t-158 105.5t-192 39.5t-192 -39.5t-158 -105.5t-105.5 -158t-39.5 -192t39.5 -192t105.5 -158t158 -105.5t192 -39.5zM512 810q115 0 213 -57t155.5 -155t57.5 -214t-57 -214t-155 -155
t-214 -57t-214 57.5t-155 155.5t-57 213t57.5 213t155.5 155.5t213 57.5zM284 354h455h1q14 0 24 10t10 25v0v1q0 14 -10 24t-24 10h-1h-455h-1q-14 0 -24 -10t-10 -24v-1q0 -14 10.5 -24.5t24.5 -10.5z" />
    <glyph glyph-name="play" unicode="&#xe643;" 
d="M512 -111q101 0 192.5 39.5t157.5 105.5t105.5 157.5t39.5 192.5t-39.5 192.5t-105.5 157.5t-157.5 105.5t-192.5 39.5t-192.5 -39.5t-157.5 -105.5t-105.5 -157.5t-39.5 -192.5t39.5 -192.5t105.5 -157.5t157.5 -105.5t192.5 -39.5zM512 809q115 0 213 -57t155 -155
t57 -213t-57 -213t-155 -155t-213 -57t-213 57t-155 155t-57 213t57 213t155 155t213 57zM415 129q6 -3 14 -3q14 0 24 11l225 225q10 10 10 25t-10 24l-226 226q-16 16 -38 7q-21 -8 -21 -32v-451q0 -22 22 -32zM463 528l141 -141l-141 -142v283z" />
    <glyph glyph-name="rewind" unicode="&#xe644;" 
d="M543 637q-7 3 -13 3q-15 0 -25 -10l-222 -229q-10 -11 -10 -25.5t10 -25.5l223 -229q10 -10 24 -10q7 0 14 3q21 8 21 32v124l144 -149q10 -10 25 -10q7 0 13 3q21 8 21 32v459q0 24 -21 32q-6 3 -13 3q-15 0 -25 -10l-144 -149v124q0 23 -22 32zM495 395v-163l-139 143
l140 144v-124h-1zM697 519v-287l-134 138v11z" />
    <glyph glyph-name="right" unicode="&#xe645;" 
d="M316 -101q-11 -10 -25.5 -10t-24.5 10.5t-10 25t10 24.5l435 435l-435 435q-10 10 -10 24.5t10 25t24.5 10.5t25.5 -10l459 -460q10 -10 10 -25t-10 -25z" />
    <glyph glyph-name="up" unicode="&#xe646;" 
d="M997 121q-10 -10 -24.5 -10t-25.5 10l-435 436l-435 -436q-10 -10 -24.5 -10t-25 10t-10.5 24.5t10 25.5l460 459q10 10 24.5 10t24.5 -10l460 -459q11 -11 11 -25.5t-10 -24.5z" />
    <glyph glyph-name="zoom-in" unicode="&#xe647;" 
d="M402 109q140 0 246 89l299 -299q10 -10 24.5 -10t25 10.5t10.5 25t-10 24.5l-299 299q89 107 89 246q0 104 -51.5 193t-140 140.5t-193.5 51.5q-104 0 -192.5 -52t-140.5 -140.5t-52 -192.5q0 -105 52 -193.5t140.5 -140t192.5 -51.5zM402 809q86 0 158.5 -42.5
t114.5 -115t42 -157.5q0 -131 -92 -223t-223 -92q-85 0 -158 42t-115 114.5t-42 158t42.5 158t115 115t157.5 42.5v0zM367 266q0 -15 10 -25t25 -10h1q14 0 24 10t10 24v1v193h193h1q14 0 24 10t10 24v1v0q0 14 -10 24.5t-24 10.5h-1h-193v193v0q0 15 -10 25t-24 10h-1v0
q-14 0 -24.5 -10t-10.5 -25v0v-193h-193v0q-15 0 -25 -10.5t-10 -24.5v0q0 -15 10 -25t25 -10h193v-193z" />
    <glyph glyph-name="zoom-out" unicode="&#xe648;" 
d="M402 879q-105 0 -193.5 -51.5t-140 -140t-51.5 -193t51.5 -193.5t140 -140.5t193.5 -51.5q139 0 246 90l299 -300q10 -10 24.5 -10t25 10.5t10.5 25t-10 24.5l-300 298q90 108 90 247q0 105 -52 193.5t-140.5 140t-192.5 51.5v0zM402 178q-131 0 -223.5 93t-92.5 223.5
t92.5 223t223 92.5t223 -92.5t92.5 -223t-92.5 -223.5t-222.5 -93v0zM629 529h-455q-15 0 -25 -10t-10 -25t10 -25t25 -10h455q15 0 25 10t10 25t-10 25t-25 10z" />
  </font>
</defs>
</svg>
