<?xml version="1.0" standalone="no"?>
<!DOCTYPE svg PUBLIC "-//W3C//DTD SVG 1.1//EN" "http://www.w3.org/Graphics/SVG/1.1/DTD/svg11.dtd" >
<svg xmlns="http://www.w3.org/2000/svg">
<metadata>
Created by FontForge 20120731 at Mon Jun 19 15:16:57 2017
 By admin
</metadata>
<defs>
<font id="feather" horiz-adv-x="1024" >
  <font-face 
    font-family="feather"
    font-weight="500"
    font-stretch="normal"
    units-per-em="1024"
    panose-1="2 0 6 3 0 0 0 0 0 0"
    ascent="896"
    descent="-128"
    x-height="792"
    bbox="-0.5625 -128.781 1044 896.781"
    underline-thickness="0"
    underline-position="0"
    unicode-range="U+0078-E84B"
  />
<missing-glyph 
 />
    <glyph glyph-name=".notdef" 
 />
    <glyph glyph-name=".notdef" 
 />
    <glyph glyph-name=".null" horiz-adv-x="0" 
 />
    <glyph glyph-name="nonmarkingreturn" horiz-adv-x="341" 
 />
    <glyph glyph-name="glyph3" unicode="x" horiz-adv-x="1001" 
d="M281 543q-27 -1 -53 -1h-83q-18 0 -36.5 -6t-32.5 -18.5t-23 -32t-9 -45.5v-76h912v41q0 16 -0.5 30t-0.5 18q0 13 -5 29t-17 29.5t-31.5 22.5t-49.5 9h-133v-97h-438v97zM955 310v-52q0 -23 0.5 -52t0.5 -58t-10.5 -47.5t-26 -30t-33 -16t-31.5 -4.5q-14 -1 -29.5 -0.5
t-29.5 0.5h-32l-45 128h-439l-44 -128h-29h-34q-20 0 -45 1q-25 0 -41 9.5t-25.5 23t-13.5 29.5t-4 30v167h911zM163 247q-12 0 -21 -8.5t-9 -21.5t9 -21.5t21 -8.5q13 0 22 8.5t9 21.5t-9 21.5t-22 8.5zM316 123q-8 -26 -14 -48q-5 -19 -10.5 -37t-7.5 -25t-3 -15t1 -14.5
t9.5 -10.5t21.5 -4h37h67h81h80h64h36q23 0 34 12t2 38q-5 13 -9.5 30.5t-9.5 34.5q-5 19 -11 39h-368zM336 498v228q0 11 2.5 23t10 21.5t20.5 15.5t34 6h188q31 0 51.5 -14.5t20.5 -52.5v-227h-327z" />
    <glyph glyph-name="alert-circle" unicode="&#xe76a;" 
d="M512 -85q-95 0 -182 37t-150 100t-100 150t-37 182t37 182t100 150t150 100t182 37t182 -37t150 -100t100 -150t37 -182t-37 -182t-100 -150t-150 -100t-182 -37zM512 0q104 0 192.5 51.5t140 140t51.5 192.5q0 159 -112.5 271.5t-271.5 112.5t-271.5 -112.5
t-112.5 -271.5q0 -104 51.5 -192.5t140 -140t192.5 -51.5zM469 555v-171q0 -18 12.5 -30.5t30.5 -12.5t30.5 12.5t12.5 30.5v171q0 17 -12.5 29.5t-30.5 12.5t-30.5 -12.5t-12.5 -29.5zM512 213zM469 213.5q0 -17.5 12.5 -30t30.5 -12.5t30.5 12.5t12.5 30t-12.5 30
t-30.5 12.5t-30.5 -12.5t-12.5 -30z" />
    <glyph glyph-name="airplay" unicode="&#xe76b;" 
d="M213 213h-42q-18 0 -30.5 12.5t-12.5 30.5v427q0 17 12.5 29.5t30.5 12.5h682q18 0 30.5 -12.5t12.5 -29.5v-427q0 -18 -12.5 -30.5t-30.5 -12.5h-42q-18 0 -30.5 -12.5t-12.5 -30t12.5 -30t30.5 -12.5h42q53 0 90.5 37.5t37.5 90.5v427q0 53 -37.5 90.5t-90.5 37.5h-682
q-53 0 -90.5 -37.5t-37.5 -90.5v-427q0 -53 37.5 -90.5t90.5 -37.5h42q18 0 30.5 12.5t12.5 30t-12.5 30t-30.5 12.5zM512 189l-122 -146h244zM725 -43h-426q-18 0 -30.5 12.5t-12.5 30.5q0 15 10 27l213 256q13 16 33 16t33 -16l213 -256q10 -12 10 -27q0 -18 -12.5 -30.5
t-30.5 -12.5z" />
    <glyph glyph-name="alert-triangle" unicode="&#xe76c;" 
d="M402 753q16 26 48 44t62 18t62 -18t48 -44l361 -604q17 -29 17 -64q0 -52 -37 -89.5t-90 -38.5h-723q-52 1 -89 38.5t-37 89.5q0 35 17 65zM115 107q-6 -10 -6 -22q0 -17 12 -29.5t30 -12.5h722q17 0 29.5 12.5t12.5 29.5q0 11 -5 21l-362 603q-5 9 -15.5 15t-20.5 6
t-20.5 -6t-15.5 -15zM512 171zM469 170.5q0 -17.5 12.5 -30t30.5 -12.5t30.5 12.5t12.5 30t-12.5 30t-30.5 12.5t-30.5 -12.5t-12.5 -30zM469 512v-171q0 -17 12.5 -29.5t30.5 -12.5t30.5 12.5t12.5 29.5v171q0 18 -12.5 30.5t-30.5 12.5t-30.5 -12.5t-12.5 -30.5z" />
    <glyph glyph-name="activity" unicode="&#xe76d;" 
d="M424 781q-9 30 -40 30t-40 -30l-119 -354h-140q-17 0 -29.5 -12.5t-12.5 -30.5t12.5 -30.5t29.5 -12.5h171v0q13 0 24.5 8.5t15.5 21.5l88 262l216 -646q9 -30 40 -30t40 30l119 354h140q17 0 29.5 12.5t12.5 30.5t-12.5 30.5t-29.5 12.5h-171v0q-13 0 -24.5 -8.5
t-15.5 -21.5l-88 -262z" />
    <glyph glyph-name="alert-octagon" unicode="&#xe76e;" 
d="M128 543v-318l225 -225h318l225 225v318l-225 225h-318zM335 853h354q17 0 30 -12l250 -250q12 -13 12 -30v-354q0 -17 -12 -30l-250 -250q-13 -12 -30 -12h-354q-17 0 -30 12l-250 250q-12 13 -12 30v354q0 17 12 30l250 250q13 12 30 12zM512 213zM469 213.5
q0 -17.5 12.5 -30t30.5 -12.5t30.5 12.5t12.5 30t-12.5 30t-30.5 12.5t-30.5 -12.5t-12.5 -30zM469 555v-171q0 -18 12.5 -30.5t30.5 -12.5t30.5 12.5t12.5 30.5v171q0 17 -12.5 29.5t-30.5 12.5t-30.5 -12.5t-12.5 -29.5z" />
    <glyph glyph-name="align-center" unicode="&#xe76f;" 
d="M768 512h-512v0q-18 0 -30.5 -12.5t-12.5 -30t12.5 -30t30.5 -12.5v0h512q18 0 30.5 12.5t12.5 30t-12.5 30t-30.5 12.5zM896 683h-768q-18 0 -30.5 -12.5t-12.5 -30.5t12.5 -30.5t30.5 -12.5h768q18 0 30.5 12.5t12.5 30.5t-12.5 30.5t-30.5 12.5zM896 341h-768v0
q-18 0 -30.5 -12.5t-12.5 -30t12.5 -30t30.5 -12.5v0h768q18 0 30.5 12.5t12.5 30t-12.5 30t-30.5 12.5zM768 171h-512q-18 0 -30.5 -12.5t-12.5 -30.5t12.5 -30.5t30.5 -12.5h512q18 0 30.5 12.5t12.5 30.5t-12.5 30.5t-30.5 12.5z" />
    <glyph glyph-name="align-justify" unicode="&#xe770;" 
d="M896 512h-768v0q-18 0 -30.5 -12.5t-12.5 -30t12.5 -30t30.5 -12.5v0h768q18 0 30.5 12.5t12.5 30t-12.5 30t-30.5 12.5zM896 683h-768q-18 0 -30.5 -12.5t-12.5 -30.5t12.5 -30.5t30.5 -12.5h768q18 0 30.5 12.5t12.5 30.5t-12.5 30.5t-30.5 12.5zM896 341h-768v0
q-18 0 -30.5 -12.5t-12.5 -30t12.5 -30t30.5 -12.5v0h768q18 0 30.5 12.5t12.5 30t-12.5 30t-30.5 12.5zM896 171h-768q-18 0 -30.5 -12.5t-12.5 -30.5t12.5 -30.5t30.5 -12.5h768q18 0 30.5 12.5t12.5 30.5t-12.5 30.5t-30.5 12.5z" />
    <glyph glyph-name="align-left" unicode="&#xe771;" 
d="M725 512h-597v0q-18 0 -30.5 -12.5t-12.5 -30t12.5 -30t30.5 -12.5v0h597q18 0 30.5 12.5t12.5 30t-12.5 30t-30.5 12.5zM896 683h-768q-18 0 -30.5 -12.5t-12.5 -30.5t12.5 -30.5t30.5 -12.5h768q18 0 30.5 12.5t12.5 30.5t-12.5 30.5t-30.5 12.5zM896 341h-768v0
q-18 0 -30.5 -12.5t-12.5 -30t12.5 -30t30.5 -12.5v0h768q18 0 30.5 12.5t12.5 30t-12.5 30t-30.5 12.5zM725 171h-597q-18 0 -30.5 -12.5t-12.5 -30.5t12.5 -30.5t30.5 -12.5h597q18 0 30.5 12.5t12.5 30.5t-12.5 30.5t-30.5 12.5z" />
    <glyph glyph-name="align-right" unicode="&#xe772;" 
d="M896 512h-597v0q-18 0 -30.5 -12.5t-12.5 -30t12.5 -30t30.5 -12.5v0h597q18 0 30.5 12.5t12.5 30t-12.5 30t-30.5 12.5zM896 683h-768q-18 0 -30.5 -12.5t-12.5 -30.5t12.5 -30.5t30.5 -12.5h768q18 0 30.5 12.5t12.5 30.5t-12.5 30.5t-30.5 12.5zM896 341h-768v0
q-18 0 -30.5 -12.5t-12.5 -30t12.5 -30t30.5 -12.5v0h768q18 0 30.5 12.5t12.5 30t-12.5 30t-30.5 12.5zM896 171h-597q-18 0 -30.5 -12.5t-12.5 -30.5t12.5 -30.5t30.5 -12.5h597q18 0 30.5 12.5t12.5 30.5t-12.5 30.5t-30.5 12.5z" />
    <glyph glyph-name="anchor" unicode="&#xe773;" 
d="M512 512v0q-71 0 -121 50t-50 120.5t50 120.5t121 50v0q71 0 121 -50t50 -120.5t-50 -120.5t-121 -50zM512 597q35 0 60 25t25 60.5t-25 60.5t-60 25t-60 -25t-25 -60.5t25 -60.5t60 -25zM555 -43v598q0 17 -12.5 29.5t-30.5 12.5t-30.5 -12.5t-12.5 -29.5v-598
q0 -17 12.5 -29.5t30.5 -12.5t30.5 12.5t12.5 29.5zM512 0q-93 0 -177.5 45.5t-139 124.5t-65.5 171h83q18 0 30.5 12.5t12.5 30.5t-12.5 30.5t-30.5 12.5h-128q-17 0 -29.5 -12.5t-12.5 -30.5q0 -95 37 -182t100 -150t150 -100t182 -37t182 37t150 100t100 150t37 182
q0 18 -12.5 30.5t-29.5 12.5h-128q-18 0 -30.5 -12.5t-12.5 -30.5t12.5 -30.5t30.5 -12.5h83q-16 -144 -125 -242.5t-257 -98.5v0z" />
    <glyph glyph-name="aperture" unicode="&#xe774;" 
d="M512 -85q-95 0 -182 37t-150 100t-100 150t-37 182t37 182t100 150t150 100t182 37t182 -37t150 -100t100 -150t37 -182t-37 -182t-100 -150t-150 -100t-182 -37zM512 0q104 0 192.5 51.5t140 140t51.5 192.5q0 159 -112.5 271.5t-271.5 112.5t-271.5 -112.5
t-112.5 -271.5q0 -104 51.5 -192.5t140 -140t192.5 -51.5zM574 533l245 -424q5 -9 15.5 -15t20.5 -6q18 0 30.5 12.5t12.5 30.5q0 11 -6 21l-244 424q-6 9 -16.5 15t-20.5 6q-18 0 -30.5 -12.5t-12.5 -30.5q0 -11 6 -21zM413 512h490q18 0 30.5 12.5t12.5 30t-12.5 30
t-30.5 12.5h-490v0q-17 0 -29.5 -12.5t-12.5 -30t12.5 -30t29.5 -12.5v0zM352 363l245 424q5 10 5 21q0 18 -12.5 30.5t-29.5 12.5q-10 0 -21 -6.5t-16 -15.5l-245 -424q-6 -9 -6 -21q0 -17 12.5 -29.5t30.5 -12.5q10 0 21 6t16 15zM450 235l-245 424q-5 9 -15.5 15t-20.5 6
q-18 0 -30.5 -12.5t-12.5 -30.5q0 -11 6 -21l244 -424q6 -9 16.5 -15t20.5 -6q18 0 30.5 12.5t12.5 30.5q0 11 -6 21zM611 256h-490q-18 0 -30.5 -12.5t-12.5 -30t12.5 -30t30.5 -12.5h490q17 0 29.5 12.5t12.5 30t-12.5 30t-29.5 12.5zM672 405l-245 -424q-5 -10 -5 -21
q0 -18 12.5 -30.5t29.5 -12.5q10 0 21 6.5t16 15.5l245 424q6 9 6 21q0 17 -12.5 29.5t-30.5 12.5q-10 0 -21 -6t-16 -15z" />
    <glyph glyph-name="arrow-down-left" unicode="&#xe775;" 
d="M738 670l-512 -512q-12 -12 -12 -29q0 -18 12.5 -30.5t30.5 -12.5q17 0 29 12l512 512q13 12 13 31q0 17 -12.5 29.5t-29.5 12.5q-19 0 -31 -13zM299 512q0 18 -12.5 30.5t-30.5 12.5t-30.5 -12.5t-12.5 -30.5v-384q0 -18 12.5 -30.5t30.5 -12.5h384q18 0 30.5 12.5
t12.5 30.5t-12.5 30.5t-30.5 12.5h-341v341z" />
    <glyph glyph-name="arrow-down" unicode="&#xe776;" 
d="M469 725v-682q0 -18 12.5 -30.5t30.5 -12.5t30.5 12.5t12.5 30.5v682q0 18 -12.5 30.5t-30.5 12.5t-30.5 -12.5t-12.5 -30.5zM286 329q-12 12 -29 12q-18 0 -30.5 -12.5t-12.5 -30.5q0 -17 12 -29l256 -256q12 -13 30 -13t30 13l256 256q12 12 12 29q0 18 -12.5 30.5
t-30.5 12.5q-17 0 -29 -12l-226 -226z" />
    <glyph glyph-name="arrow-right" unicode="&#xe777;" 
d="M171 341h682q18 0 30.5 12.5t12.5 30.5t-12.5 30.5t-30.5 12.5h-682q-18 0 -30.5 -12.5t-12.5 -30.5t12.5 -30.5t30.5 -12.5zM567 158q-12 -12 -12 -29q0 -18 12.5 -30.5t30.5 -12.5q17 0 29 12l256 256q13 12 13 30t-13 30l-256 256q-12 12 -29 12q-18 0 -30.5 -12.5
t-12.5 -30.5q0 -17 12 -29l226 -226z" />
    <glyph glyph-name="arrow-left" unicode="&#xe778;" 
d="M853 427h-682q-18 0 -30.5 -12.5t-12.5 -30.5t12.5 -30.5t30.5 -12.5h682q18 0 30.5 12.5t12.5 30.5t-12.5 30.5t-30.5 12.5zM457 610q12 12 12 29q0 18 -12.5 30.5t-30.5 12.5q-17 0 -29 -12l-256 -256q-13 -12 -13 -30t13 -30l256 -256q12 -13 30 -13t30.5 12.5
t12.5 29.5q0 19 -13 31l-226 226z" />
    <glyph glyph-name="arrow-down-right" unicode="&#xe779;" 
d="M226 610l512 -512q12 -12 29 -12q18 0 30.5 12.5t12.5 30.5q0 17 -12 29l-512 512q-12 13 -31 13q-17 0 -29.5 -12.5t-12.5 -29.5q0 -19 13 -31zM384 171q-18 0 -30.5 -12.5t-12.5 -30.5t12.5 -30.5t30.5 -12.5h384q18 0 30.5 12.5t12.5 30.5v384q0 18 -12.5 30.5
t-30.5 12.5t-30.5 -12.5t-12.5 -30.5v-341h-341z" />
    <glyph glyph-name="arrow-up-left" unicode="&#xe77a;" 
d="M798 158l-512 512q-12 13 -31 13q-17 0 -29.5 -12.5t-12.5 -29.5q0 -19 13 -31l512 -512q12 -12 29 -12q18 0 30.5 12.5t12.5 30.5q0 17 -12 29zM640 597q18 0 30.5 12.5t12.5 30.5t-12.5 30.5t-30.5 12.5h-384q-18 0 -30.5 -12.5t-12.5 -30.5v-384q0 -18 12.5 -30.5
t30.5 -12.5t30.5 12.5t12.5 30.5v341h341z" />
    <glyph glyph-name="arrow-up-right" unicode="&#xe77b;" 
d="M286 98l512 512q13 12 13 31q0 17 -12.5 29.5t-29.5 12.5q-19 0 -31 -13l-512 -512q-12 -12 -12 -29q0 -18 12.5 -30.5t30.5 -12.5q17 0 29 12zM725 256q0 -18 12.5 -30.5t30.5 -12.5t30.5 12.5t12.5 30.5v384q0 18 -12.5 30.5t-30.5 12.5h-384q-18 0 -30.5 -12.5
t-12.5 -30.5t12.5 -30.5t30.5 -12.5h341v-341z" />
    <glyph glyph-name="arrow-up" unicode="&#xe77c;" 
d="M555 43v682q0 18 -12.5 30.5t-30.5 12.5t-30.5 -12.5t-12.5 -30.5v-682q0 -18 12.5 -30.5t30.5 -12.5t30.5 12.5t12.5 30.5zM738 439q12 -12 29 -12q18 0 30.5 12.5t12.5 30.5q0 17 -12 29l-256 256q-12 13 -30 13t-30 -13l-256 -256q-13 -12 -13 -30t12.5 -30.5
t29.5 -12.5q19 0 31 13l226 226z" />
    <glyph glyph-name="at-sign" unicode="&#xe77d;" 
d="M512 171q-88 0 -150.5 62.5t-62.5 150.5t62.5 150.5t150.5 62.5t150.5 -62.5t62.5 -150.5t-62.5 -150.5t-150.5 -62.5zM512 256q53 0 90.5 37.5t37.5 90.5t-37.5 90.5t-90.5 37.5t-90.5 -37.5t-37.5 -90.5t37.5 -90.5t90.5 -37.5zM640 384v-43v0q0 -70 50 -120t120.5 -50
t120.5 50t50 120v43q0 95 -37 182t-100 150t-150 100t-182 37t-182 -37t-150 -100t-100 -150t-37 -182t37 -182t100 -150t150 -100t182 -37q66 0 149.5 28t135.5 68q17 13 17 34q0 18 -12.5 30.5t-30.5 12.5q-14 0 -26 -9q-42 -33 -110.5 -56t-122.5 -23q-104 0 -192.5 51.5
t-140 140t-51.5 192.5t51.5 192.5t140 140t192.5 51.5t192.5 -51.5t140 -140t51.5 -192.5v-43q0 -35 -25 -60t-60.5 -25t-60.5 25t-25 60v43q0 18 -12.5 30.5t-30 12.5t-30 -12.5t-12.5 -30.5z" />
    <glyph glyph-name="bar-chart-" unicode="&#xe77e;" 
d="M469 725v-682h86v682h-86zM427 811h170q18 0 30.5 -12.5t12.5 -30.5v-768q0 -18 -12.5 -30.5t-30.5 -12.5h-170v0q-18 0 -30.5 12.5t-12.5 30.5v768q0 18 12.5 30.5t30.5 12.5zM811 512v-469h85v469h-85zM768 597h171q17 0 29.5 -12.5t12.5 -29.5v-555q0 -18 -12.5 -30.5
t-29.5 -12.5h-171q-18 0 -30.5 12.5t-12.5 30.5v555q0 17 12.5 29.5t30.5 12.5zM128 43h85v256h-85v-256zM85 384h171v0q18 0 30.5 -12.5t12.5 -30.5v-341q0 -18 -12.5 -30.5t-30.5 -12.5h-171q-17 0 -29.5 12.5t-12.5 30.5v341q0 18 12.5 30.5t29.5 12.5z" />
    <glyph glyph-name="award" unicode="&#xe77f;" 
d="M512 213q-93 0 -171.5 46t-124 124.5t-45.5 171t45.5 171.5t124 124.5t171.5 45.5t171.5 -45.5t124 -124.5t45.5 -171.5t-45.5 -171t-124 -124.5t-171.5 -46zM512 299q106 0 181 75t75 181t-75 181t-181 75t-181 -75t-75 -181t75 -181t181 -75zM703 -122q11 -6 22 -6
q18 0 30.5 12.5t12.5 30.5v5l-52 389q-2 15 -14.5 26t-27.5 11q-18 0 -30.5 -12.5t-12.5 -30.5v-5l40 -301l-137 82q-10 6 -22 6t-22 -6l-137 -82l40 301v4q0 18 -12.5 30.5t-30.5 12.5q-15 0 -27.5 -10.5t-14.5 -25.5l-52 -389v-5q0 -18 12.5 -30.5t30.5 -12.5q11 0 22 6
l191 115l191 -115v0z" />
    <glyph glyph-name="battery-charging" unicode="&#xe780;" 
d="M213 171h-85q-18 0 -30.5 12.5t-12.5 29.5v342q0 17 12.5 29.5t30.5 12.5h136q18 0 30.5 12.5t12.5 30.5t-12.5 30.5t-30.5 12.5h-136q-53 0 -90.5 -37.5t-37.5 -90.5v-342q0 -53 37.5 -90.5t90.5 -37.5h85q18 0 30.5 12.5t12.5 30.5t-12.5 30.5t-30.5 12.5zM640 597h85
q18 0 30.5 -12.5t12.5 -29.5v-342q0 -17 -12.5 -29.5t-30.5 -12.5h-136q-17 0 -29.5 -12.5t-12.5 -30.5t12.5 -30.5t29.5 -12.5h136q53 0 90.5 37.5t37.5 90.5v342q0 53 -37.5 90.5t-90.5 37.5h-85q-18 0 -30.5 -12.5t-12.5 -30.5t12.5 -30.5t30.5 -12.5zM1024 341v86
q0 17 -12.5 29.5t-30 12.5t-30 -12.5t-12.5 -29.5v-86q0 -17 12.5 -29.5t30 -12.5t30 12.5t12.5 29.5zM349 152q-8 -11 -8 -24q0 -18 12.5 -30.5t30.5 -12.5q9 0 19.5 5.5t15.5 13.5l171 256q7 11 7 24q0 18 -12.5 30.5t-29.5 12.5v0h-177l127 189q7 11 7 24
q0 18 -12.5 30.5t-30.5 12.5q-9 0 -19.5 -5.5t-15.5 -13.5l-171 -256q-7 -11 -7 -24q0 -18 12.5 -30.5t30.5 -12.5v0h176z" />
    <glyph glyph-name="bar-chart" unicode="&#xe781;" 
d="M811 725v-682h85v682h-85zM768 811h171q17 0 29.5 -12.5t12.5 -30.5v-768q0 -18 -12.5 -30.5t-29.5 -12.5h-171q-18 0 -30.5 12.5t-12.5 30.5v768q0 18 12.5 30.5t30.5 12.5zM469 512v-469h86v469h-86zM427 597h170q18 0 30.5 -12.5t12.5 -29.5v-555q0 -18 -12.5 -30.5
t-30.5 -12.5h-170v0q-18 0 -30.5 12.5t-12.5 30.5v555q0 17 12.5 29.5t30.5 12.5zM128 43h85v256h-85v-256zM85 384h171v0q18 0 30.5 -12.5t12.5 -30.5v-341q0 -18 -12.5 -30.5t-30.5 -12.5h-171q-17 0 -29.5 12.5t-12.5 30.5v341q0 18 12.5 30.5t29.5 12.5z" />
    <glyph glyph-name="battery" unicode="&#xe782;" 
d="M85 554v-340q0 -18 12.5 -30.5t30.5 -12.5h598q17 0 29.5 12.5t12.5 30.5v340q0 18 -12.5 30.5t-29.5 12.5h-598q-18 0 -30.5 -12.5t-12.5 -30.5zM0 554v1q0 53 37.5 90.5t90.5 37.5h598q52 0 89.5 -38t37.5 -91v0v-340v-1q0 -53 -37.5 -90.5t-89.5 -37.5h-598
q-53 0 -90.5 38t-37.5 91v0v340v0zM1024 341v86q0 17 -12.5 29.5t-30 12.5t-30 -12.5t-12.5 -29.5v-86q0 -17 12.5 -29.5t30 -12.5t30 12.5t12.5 29.5z" />
    <glyph glyph-name="bell-off" unicode="&#xe783;" 
d="M387 735q24 13 60.5 23t64.5 10q106 0 181 -75t75 -181v0v-171q0 -18 12.5 -30.5t30 -12.5t30 12.5t12.5 30.5v171v0q0 92 -45.5 171t-124 124.5t-171.5 45.5q-37 0 -86 -13t-81 -31q-10 -5 -17 -16t-7 -22q0 -18 12.5 -30.5t30.5 -12.5q12 0 23 7zM256 298v214v0
q0 26 8.5 60.5t20.5 56.5q5 10 5 20q0 18 -12.5 30.5t-30.5 12.5q-11 0 -22 -7t-16 -16q-16 -31 -27 -77t-11 -80v0v-214q0 -35 -25 -60t-60 -25q-27 0 -38 -21t0 -42.5t38 -21.5h639q18 0 30.5 12.5t12.5 30t-12.5 30t-30.5 12.5h-491q22 40 22 85zM549 21.5
q-5 -8.5 -16 -15t-21 -6.5t-21 6.5t-16 15t-15.5 15t-21.5 6.5q-17 0 -29.5 -12.5t-12.5 -30.5q0 -12 6 -21q15 -27 47.5 -45.5t63 -18.5t63 18.5t47.5 45.5q6 9 6 21q0 18 -12.5 30.5t-30.5 12.5q-10 0 -21 -6.5t-16 -15zM13 823l938 -939q13 -11 30 -11t29.5 12.5
t12.5 29.5t-11 30l-939 938q-12 13 -30 13t-30.5 -12.5t-12.5 -30.5t13 -30z" />
    <glyph glyph-name="bluetooth" unicode="&#xe784;" 
d="M555 18l131 131l-131 132v-263zM686 619l-131 131v-263zM247 588q-13 13 -13 31t12.5 30.5t30.5 12.5t31 -13l469 -469q12 -13 12 -30.5t-12 -30.5l-235 -234q-20 -21 -46.5 -10t-26.5 40v938q0 29 26.5 40t46.5 -10l235 -234q12 -13 12 -30.5t-12 -30.5l-469 -469
q-13 -13 -31 -13t-30.5 12.5t-12.5 30.5t13 31l308 307v-206z" />
    <glyph glyph-name="book" unicode="&#xe785;" 
d="M213 64q0 26 19 45t45 19h576q18 0 30.5 12.5t12.5 30t-12.5 30t-30.5 12.5h-576v0q-61 0 -105 -43.5t-44 -105.5q0 -18 12.5 -30.5t30 -12.5t30 12.5t12.5 30.5zM811 768h-534v0q-26 0 -45 -19t-19 -45v-640q0 -26 19 -45t45 -19h534v768zM853 853q18 0 30.5 -12.5
t12.5 -29.5v-854q0 -17 -12.5 -29.5t-30.5 -12.5h-576v0q-61 0 -105 43.5t-44 105.5v640q0 62 44 105.5t105 43.5h576z" />
    <glyph glyph-name="bookmark" unicode="&#xe786;" 
d="M768 83v600q0 17 -12.5 29.5t-30.5 12.5h-426q-18 0 -30.5 -12.5t-12.5 -29.5v-600l231 165q11 8 25 8t25 -8l231 -165v0zM238 -35q-11 -8 -25 -8q-17 0 -29.5 12.5t-12.5 30.5v0v683q0 53 37.5 90.5t90.5 37.5h426q53 0 90.5 -37.5t37.5 -90.5v-683v0q0 -18 -12.5 -30.5
t-29.5 -12.5q-14 0 -25 8l-274 196z" />
    <glyph glyph-name="briefcase" unicode="&#xe787;" 
d="M128 512v-426v-1q0 -17 12.5 -29.5t29.5 -12.5h684q17 0 29.5 12.5t12.5 30.5v426v0q0 18 -12.5 30.5t-29.5 12.5h-684q-17 0 -29.5 -13t-12.5 -30zM43 512v0q0 53 37 90.5t90 37.5h684q53 0 90 -37.5t37 -90.5v0v-426v-1q0 -52 -37 -89.5t-90 -38.5h-684q-53 0 -90 37.5
t-37 90.5v1v426zM725 0v683q0 53 -37.5 90.5t-90.5 37.5h-170q-53 0 -90.5 -37.5t-37.5 -90.5v-683q0 -18 12.5 -30.5t30 -12.5t30 12.5t12.5 30.5v683q0 17 12.5 29.5t30.5 12.5h170q18 0 30.5 -12.5t12.5 -29.5v-683q0 -18 12.5 -30.5t30 -12.5t30 12.5t12.5 30.5v0z" />
    <glyph glyph-name="calendar" unicode="&#xe788;" 
d="M171 640v-598q0 -17 12.5 -29.5t29.5 -12.5h598q17 0 29.5 12.5t12.5 29.5v598v0q0 18 -12.5 30.5t-29.5 12.5h-598q-17 0 -29.5 -12.5t-12.5 -30.5zM85 640v0q0 53 37.5 90.5t90.5 37.5h598q53 0 90.5 -37.5t37.5 -90.5v-598q0 -52 -37.5 -89.5t-90.5 -37.5h-598
q-53 0 -90.5 37.5t-37.5 89.5v598zM640 811v-171q0 -18 12.5 -30.5t30 -12.5t30 12.5t12.5 30.5v171q0 17 -12.5 29.5t-30 12.5t-30 -12.5t-12.5 -29.5zM299 811v-171v0q0 -18 12.5 -30.5t30 -12.5t30 12.5t12.5 30.5v0v171v0q0 17 -12.5 29.5t-30 12.5t-30 -12.5
t-12.5 -29.5v0zM128 427h768q18 0 30.5 12.5t12.5 30t-12.5 30t-30.5 12.5h-768v0q-18 0 -30.5 -12.5t-12.5 -30t12.5 -30t30.5 -12.5v0z" />
    <glyph glyph-name="box" unicode="&#xe789;" 
d="M493 796l-341 -171q-10 -5 -17 -16t-7 -22v-406q0 -27 23 -39l342 -170q9 -5 19 -5t19 5l341 170q10 5 17 16.5t7 21.5v407q0 11 -7 22t-17 16l-341 171q-9 4 -19 4t-19 -4v0zM569 872l341 -170q30 -15 50.5 -48.5t20.5 -66.5v-407q0 -32 -20.5 -65.5t-50.5 -48.5
l-341 -171q-27 -13 -57 -13t-57 13l-342 171q-29 15 -49.5 48.5t-20.5 65.5v1v406q0 33 20.5 66.5t50.5 48.5l341 170q27 14 57 14t57 -14zM118 671q-8 4 -18 4q-17 0 -30 -12.5t-13 -29.5q0 -11 7 -22t16 -16l413 -206q9 -5 19 -5t19 5l413 206q9 5 16 16t7 22
q0 17 -13 29.5t-30 12.5q-10 0 -18 -4l-394 -197zM555 -75v502q0 17 -12.5 29.5t-30.5 12.5t-30.5 -12.5t-12.5 -29.5v-502q0 -18 12.5 -30.5t30.5 -12.5t30.5 12.5t12.5 30.5z" />
    <glyph glyph-name="camera" unicode="&#xe78a;" 
d="M334 616q-5 -8 -15.5 -13.5t-19.5 -5.5v0h-171q-18 0 -30.5 -12.5t-12.5 -29.5v-470q0 -17 12.5 -29.5t30.5 -12.5h768q18 0 30.5 12.5t12.5 29.5v470q0 17 -12.5 29.5t-30.5 12.5h-171v0q-9 0 -19.5 5.5t-15.5 13.5l-73 109h-210zM896 683q53 0 90.5 -37.5t37.5 -90.5
v-470q0 -53 -37.5 -90.5t-90.5 -37.5h-768q-53 0 -90.5 37.5t-37.5 90.5v470q0 53 37.5 90.5t90.5 37.5h148l73 109q5 8 15.5 13.5t19.5 5.5v0h256v0q9 0 19.5 -5.5t15.5 -13.5l73 -109h148zM512 128q-88 0 -150.5 62.5t-62.5 151t62.5 151t150.5 62.5t150.5 -62.5
t62.5 -151t-62.5 -151t-150.5 -62.5zM512 213q53 0 90.5 37.5t37.5 90.5t-37.5 90.5t-90.5 37.5t-90.5 -37.5t-37.5 -90.5t37.5 -90.5t90.5 -37.5z" />
    <glyph glyph-name="cast" unicode="&#xe78b;" 
d="M77 167q46 -9 85 -48t48 -85q3 -14 15 -24t27 -10q17 0 29.5 12.5t12.5 30.5v8q-14 69 -72.5 127.5t-127.5 72.5q-4 1 -9 1q-17 0 -29.5 -12.5t-12.5 -30.5q0 -14 10 -26.5t24 -15.5zM81 339q112 -12 200.5 -100.5t100.5 -200.5q2 -16 14.5 -27t28.5 -11q17 0 29.5 12.5
t12.5 30.5v4q-10 92 -64.5 175.5t-137.5 137.5t-175 64q-2 1 -5 1q-17 0 -29.5 -12.5t-12.5 -30.5q0 -16 11 -28.5t27 -14.5v0zM128 555v85q0 18 12.5 30.5t30.5 12.5h682q18 0 30.5 -12.5t12.5 -30.5v-512q0 -18 -12.5 -30.5t-30.5 -12.5h-256q-17 0 -29.5 -12.5t-12.5 -30
t12.5 -30t29.5 -12.5h256q53 0 90.5 37.5t37.5 90.5v512q0 53 -37.5 90.5t-90.5 37.5h-682q-53 0 -90.5 -37.5t-37.5 -90.5v-85v0q0 -18 12.5 -30.5t30 -12.5t30 12.5t12.5 30.5v0zM85 43zM43 43v0q0 -18 12.5 -30.5t30 -12.5t30 12.5t12.5 30.5v0v0q0 17 -12.5 29.5
t-30 12.5t-30 -12.5t-12.5 -29.5v0z" />
    <glyph glyph-name="camera-off" unicode="&#xe78c;" 
d="M13 823l938 -939q13 -11 30 -11t29.5 12.5t12.5 29.5t-11 30l-939 938q-12 13 -30 13t-30.5 -12.5t-12.5 -30.5t13 -30zM896 43h-768q-17 0 -29.5 12.5t-12.5 29.5v469v0q0 18 12.5 30.5t29.5 12.5h128q18 0 30.5 12.5t12.5 30t-12.5 30t-30.5 12.5h-128q-53 0 -90 -37.5
t-37 -90.5v-469q0 -53 37 -90.5t90 -37.5h768q18 0 30.5 12.5t12.5 30.5t-12.5 30.5t-30.5 12.5zM690 616q5 -8 15.5 -13.5t19.5 -5.5v0h171v0q18 0 30.5 -12.5t12.5 -30.5v-398q0 -18 12.5 -30.5t30 -12.5t30 12.5t12.5 30.5v398q0 53 -37.5 90.5t-90.5 37.5h-148l-72 109
q-6 8 -16 13.5t-20 5.5v0h-256q-17 0 -29.5 -12.5t-12.5 -30t12.5 -30t29.5 -12.5h233zM617 268q-16 -23 -47 -39.5t-59 -16.5q-53 0 -90.5 37.5t-37.5 90.5q0 28 16.5 59t39.5 47q8 5 13.5 15.5t5.5 19.5q0 18 -12.5 30.5t-30.5 12.5q-13 0 -24 -8q-38 -26 -65.5 -77.5
t-27.5 -98.5q0 -88 62.5 -150.5t150.5 -62.5q47 0 98.5 27t77.5 66q8 11 8 24q0 18 -12.5 30.5t-30.5 12.5q-9 0 -19.5 -5.5t-15.5 -13.5z" />
    <glyph glyph-name="check-circle" unicode="&#xe78d;" 
d="M896 424v-40q0 -104 -51.5 -192.5t-140 -140t-192.5 -51.5t-192.5 51.5t-140 140t-51.5 193t51.5 192.5t140 139.5t192.5 51.5q34 0 79.5 -9.5t76.5 -23.5q9 -4 19 -4q17 0 29.5 12.5t12.5 29.5q0 12 -7.5 23.5t-18.5 16.5q-38 17 -94 29t-97 12q-95 0 -182 -37.5
t-150 -100.5t-100 -149.5t-37 -182t37 -182.5t100 -150t150 -100t182 -37t182 37t150 100t100 150t37 182v40q0 17 -12.5 29.5t-30 12.5t-30 -12.5t-12.5 -29.5v0zM414 457q-12 12 -29 12q-18 0 -30.5 -12.5t-12.5 -30.5q0 -17 12 -29l128 -128q12 -13 30 -13t30 13l469 469
q14 12 14 31q0 17 -12.5 29.5t-30.5 12.5t-31 -13l-439 -439z" />
    <glyph glyph-name="check" unicode="&#xe78e;" 
d="M201 371q-13 12 -30 12t-29.5 -12.5t-12.5 -29.5t12 -30l213 -213q12 -13 30 -13t30 13l469 469q14 13 14 31t-12.5 30.5t-30.5 12.5t-31 -14l-439 -439z" />
    <glyph glyph-name="check-square" unicode="&#xe78f;" 
d="M371 457q-12 12 -29 12q-18 0 -30.5 -12.5t-12.5 -30.5q0 -17 12 -29l128 -128q13 -13 30.5 -13t29.5 13l470 469q13 12 13 31q0 17 -12.5 29.5t-30.5 12.5t-30 -13l-440 -439zM811 384v-299q0 -17 -12.5 -29.5t-30.5 -12.5h-597q-18 0 -30.5 12.5t-12.5 29.5v598
q0 17 12.5 29.5t30.5 12.5h469q18 0 30.5 12.5t12.5 30.5t-12.5 30.5t-30.5 12.5h-469q-53 0 -90.5 -37.5t-37.5 -90.5v-598q0 -53 37.5 -90.5t90.5 -37.5h597q53 0 90.5 37.5t37.5 90.5v299q0 18 -12.5 30.5t-30 12.5t-30 -12.5t-12.5 -30.5z" />
    <glyph glyph-name="chevron-down" unicode="&#xe790;" 
d="M286 542q-12 13 -31 13q-17 0 -29.5 -12.5t-12.5 -29.5q0 -19 13 -31l256 -256q12 -13 30 -13t30 13l256 256q13 12 13 31q0 17 -12.5 29.5t-29.5 12.5q-19 0 -31 -13l-226 -226z" />
    <glyph glyph-name="chevron-right" unicode="&#xe791;" 
d="M354 158q-12 -12 -12 -29q0 -18 12.5 -30.5t30.5 -12.5q17 0 29 12l256 256q13 12 13 30t-13 30l-256 256q-12 13 -31 13q-17 0 -29.5 -12.5t-12.5 -29.5q0 -19 13 -31l226 -226z" />
    <glyph glyph-name="chevron-left" unicode="&#xe792;" 
d="M670 610q12 12 12 29q0 18 -12.5 30.5t-30.5 12.5q-17 0 -29 -12l-256 -256q-13 -12 -13 -30t13 -30l256 -256q12 -13 31 -13q17 0 29.5 12.5t12.5 29.5q0 19 -13 31l-226 226z" />
    <glyph glyph-name="chevron-up" unicode="&#xe793;" 
d="M738 226q12 -12 29 -12q18 0 30.5 12.5t12.5 30.5q0 17 -12 29l-256 256q-12 13 -30 13t-30 -13l-256 -256q-13 -12 -13 -31q0 -17 12.5 -29.5t29.5 -12.5q19 0 31 13l226 226z" />
    <glyph glyph-name="chevrons-down" unicode="&#xe794;" 
d="M329 371q-13 12 -30 12t-29.5 -12.5t-12.5 -29.5t12 -30l213 -213q12 -13 30 -13t30 13l213 213q14 13 14 31t-12.5 30.5t-30.5 12.5t-31 -14l-183 -183zM329 670q-13 13 -31 13t-30.5 -12.5t-12.5 -29.5q0 -19 14 -31l213 -213q12 -13 30 -13t30 13l213 213q14 12 14 31
q0 17 -12.5 29.5t-30.5 12.5t-31 -13l-183 -183z" />
    <glyph glyph-name="chevrons-left" unicode="&#xe795;" 
d="M499 567q12 13 12 30t-12.5 29.5t-29.5 12.5t-30 -12l-213 -213q-13 -12 -13 -30t13 -30l213 -213q13 -14 31 -14t30.5 12.5t12.5 30.5t-14 31l-183 183zM798 567q13 13 13 31t-12.5 30.5t-29.5 12.5q-19 0 -31 -14l-213 -213q-13 -12 -13 -30t13 -30l213 -213
q12 -12 29 -12q18 0 30.5 12.5t12.5 29.5t-12 30l-183 183z" />
    <glyph glyph-name="chevrons-right" unicode="&#xe796;" 
d="M525 201q-12 -13 -12 -30t12.5 -29.5t29.5 -12.5t30 12l213 213q13 12 13 30t-13 30l-213 213q-13 14 -31 14t-30.5 -12.5t-12.5 -30.5t14 -31l183 -183zM226 201q-12 -13 -12 -30t12.5 -29.5t30.5 -12.5q17 0 29 12l213 213q13 12 13 30t-13 30l-213 213q-12 14 -31 14
q-17 0 -29.5 -12.5t-12.5 -30.5t13 -31l183 -183z" />
    <glyph glyph-name="chevrons-up" unicode="&#xe797;" 
d="M695 397q13 -12 30 -12t29.5 12.5t12.5 29.5t-12 30l-213 213q-12 13 -30 13t-30 -13l-213 -213q-14 -13 -14 -31t12.5 -30.5t30.5 -12.5t31 14l183 183zM512 281l183 -183q13 -12 30 -12t29.5 12.5t12.5 30.5q0 17 -12 29l-213 213q-12 13 -30 13t-30 -13l-213 -213
q-12 -12 -12 -29q0 -18 12.5 -30.5t29.5 -12.5t30 12z" />
    <glyph glyph-name="chrome" unicode="&#xe798;" 
d="M512 -85q-95 0 -182 37t-150 100t-100 150t-37 182t37 182t100 150t150 100t182 37t182 -37t150 -100t100 -150t37 -182t-37 -182t-100 -150t-150 -100t-182 -37zM512 0q104 0 192.5 51.5t140 140t51.5 192.5q0 159 -112.5 271.5t-271.5 112.5t-271.5 -112.5
t-112.5 -271.5q0 -104 51.5 -192.5t140 -140t192.5 -51.5zM512 171q-88 0 -150.5 62.5t-62.5 150.5t62.5 150.5t150.5 62.5t150.5 -62.5t62.5 -150.5t-62.5 -150.5t-150.5 -62.5zM512 256q53 0 90.5 37.5t37.5 90.5t-37.5 90.5t-90.5 37.5t-90.5 -37.5t-37.5 -90.5
t37.5 -90.5t90.5 -37.5zM903 597h-391q-18 0 -30.5 -12.5t-12.5 -30t12.5 -30t30.5 -12.5h391q18 0 30.5 12.5t12.5 30t-12.5 30t-30.5 12.5zM132 616l195 -339q6 -8 16.5 -14.5t20.5 -6.5q18 0 30.5 12.5t12.5 30.5q0 11 -6 21l-196 339q-5 9 -15.5 15t-20.5 6
q-18 0 -30.5 -12.5t-12.5 -30.5q0 -11 6 -21zM501 -61l196 338q5 10 5 21q0 18 -12.5 30.5t-30.5 12.5q-10 0 -20.5 -6t-15.5 -15l-196 -339q-5 -10 -5 -21q0 -18 12.5 -30.5t29.5 -12.5q10 0 21 6.5t16 15.5z" />
    <glyph glyph-name="circle" unicode="&#xe799;" 
d="M512 -85q-95 0 -182 37t-150 100t-100 150t-37 182t37 182t100 150t150 100t182 37t182 -37t150 -100t100 -150t37 -182t-37 -182t-100 -150t-150 -100t-182 -37zM512 0q104 0 192.5 51.5t140 140t51.5 192.5q0 159 -112.5 271.5t-271.5 112.5t-271.5 -112.5
t-112.5 -271.5q0 -104 51.5 -192.5t140 -140t192.5 -51.5z" />
    <glyph glyph-name="clock" unicode="&#xe79a;" 
d="M512 -85q-95 0 -182 37t-150 100t-100 150t-37 182t37 182t100 150t150 100t182 37t182 -37t150 -100t100 -150t37 -182t-37 -182t-100 -150t-150 -100t-182 -37zM512 0q104 0 192.5 51.5t140 140t51.5 192.5q0 159 -112.5 271.5t-271.5 112.5t-271.5 -112.5
t-112.5 -271.5q0 -104 51.5 -192.5t140 -140t192.5 -51.5zM555 640q0 18 -12.5 30.5t-30.5 12.5t-30.5 -12.5t-12.5 -30.5v-256q0 -18 13 -30l128 -128q12 -12 29 -12q18 0 30.5 12.5t12.5 30.5q0 17 -12 29l-115 116v238z" />
    <glyph glyph-name="clipboard" unicode="&#xe79b;" 
d="M683 683h85q18 0 30.5 -12.5t12.5 -30.5v-597q0 -18 -12.5 -30.5t-30.5 -12.5h-512q-18 0 -30.5 12.5t-12.5 30.5v597q0 18 12.5 30.5t30.5 12.5h85v0q18 0 30.5 12.5t12.5 30t-12.5 30t-30.5 12.5v0h-85q-53 0 -90.5 -37.5t-37.5 -90.5v-597q0 -53 37.5 -90.5
t90.5 -37.5h512q53 0 90.5 37.5t37.5 90.5v597q0 53 -37.5 90.5t-90.5 37.5h-85q-18 0 -30.5 -12.5t-12.5 -30t12.5 -30t30.5 -12.5zM384 768v0v-85v0h256v0v85v0h-256zM299 768q0 35 25 60t60 25h256q36 0 60.5 -25t24.5 -60v-85q0 -35 -25 -60.5t-60 -25.5h-256
q-35 0 -60 25t-25 61v0v85z" />
    <glyph glyph-name="cloud-drizzle" unicode="&#xe79c;" 
d="M299 85v-85q0 -18 12.5 -30.5t30 -12.5t30 12.5t12.5 30.5v85q0 18 -12.5 30.5t-30 12.5t-30 -12.5t-12.5 -30.5zM299 341v-85q0 -18 12.5 -30.5t30 -12.5t30 12.5t12.5 30.5v85q0 18 -12.5 30.5t-30 12.5t-30 -12.5t-12.5 -30.5zM640 85v-85q0 -18 12.5 -30.5t30 -12.5
t30 12.5t12.5 30.5v85q0 18 -12.5 30.5t-30 12.5t-30 -12.5t-12.5 -30.5zM640 341v-85q0 -18 12.5 -30.5t30 -12.5t30 12.5t12.5 30.5v85q0 18 -12.5 30.5t-30 12.5t-30 -12.5t-12.5 -30.5zM469 0v-85q0 -18 13 -30.5t30.5 -12.5t30 12.5t12.5 30.5v85q0 18 -12.5 30.5
t-30 12.5t-30.5 -12.5t-13 -30.5zM469 256v-85q0 -18 13 -30.5t30.5 -12.5t30 12.5t12.5 30.5v85q0 18 -12.5 30.5t-30 12.5t-30.5 -12.5t-13 -30.5zM405 895q-10 1 -21 1q-104 0 -192.5 -51.5t-140 -140t-51.5 -192.5q0 -76 42.5 -164t101.5 -136q12 -9 26 -9
q18 0 30.5 12.5t12.5 30.5q0 20 -16 33q-46 37 -79 105.5t-33 127.5q0 124 87.5 211.5t211.5 87.5q96 0 180.5 -66t108.5 -158q4 -14 16 -23t25 -9h54q71 0 121 -50t50 -121q0 -46 -30 -92t-73 -64q-10 -5 -17.5 -16.5t-7.5 -22.5q0 -18 12.5 -30.5t30.5 -12.5q9 0 17 4
q63 27 108 96t45 138q0 106 -75 181t-181 75h-22q-35 100 -135 174.5t-206 80.5z" />
    <glyph glyph-name="cloud-lightning" unicode="&#xe79d;" 
d="M384 896v0q-104 0 -192.5 -51.5t-140 -140t-51.5 -192.5q0 -94 58 -192.5t140 -143.5q10 -5 20 -5q18 0 30.5 12.5t12.5 30.5q0 10 -6.5 21t-15.5 16q-63 35 -108.5 111.5t-45.5 149.5q0 124 87.5 211.5t211.5 87.5q96 0 180.5 -66t108.5 -158q4 -14 16 -23t26 -9h53h1
q70 0 120 -50t50 -121q0 -58 -40 -107t-97 -60q-14 -3 -24 -15.5t-10 -26.5q0 -18 12.5 -30.5t30.5 -12.5q4 0 8 1q85 17 145.5 90.5t60.5 160.5q0 106 -75 181t-181 75h-1h-22q-37 106 -143.5 181t-218.5 75zM434 -62q-7 -10 -7 -23q0 -18 12.5 -30.5t30.5 -12.5
q9 0 19.5 5.5t15.5 13.5l171 256q7 11 7 24q0 17 -12.5 29.5t-30.5 12.5v0h-176l126 190q8 11 8 24q0 17 -12.5 29.5t-30.5 12.5q-9 0 -19.5 -5.5t-16.5 -13.5l-170 -256q-7 -10 -7 -23q0 -18 12.5 -30.5t29.5 -12.5v0h177z" />
    <glyph glyph-name="cloud" unicode="&#xe79e;" horiz-adv-x="1044" 
d="M789 512q105 0 180 -75t75 -181v0q0 -106 -75 -181t-180 -75h-384h-1q-95 0 -180.5 47t-139.5 128t-62 176q-22 63 -22 128q0 105 51.5 193.5t140 139.5t192.5 51q96 0 181 -47t139 -128t62 -176h23v0zM789 427h-54q-14 0 -26 9t-16 23q-23 92 -108 157.5t-181 65.5
q-123 0 -210.5 -87.5t-87.5 -210.5q0 -13 1 -25q9 -113 96.5 -193.5t200.5 -80.5h1h384q70 0 120 50t50 121t-50 121t-120 50z" />
    <glyph glyph-name="cloud-rain" unicode="&#xe79f;" 
d="M640 341v-341q0 -18 12.5 -30.5t30 -12.5t30 12.5t12.5 30.5v341q0 18 -12.5 30.5t-30 12.5t-30 -12.5t-12.5 -30.5zM299 341v-341q0 -18 12.5 -30.5t30 -12.5t30 12.5t12.5 30.5v341q0 18 -12.5 30.5t-30 12.5t-30 -12.5t-12.5 -30.5zM469 256v-341q0 -18 13 -30.5
t30.5 -12.5t30 12.5t12.5 30.5v341q0 18 -12.5 30.5t-30 12.5t-30.5 -12.5t-13 -30.5zM405 895q-10 1 -21 1q-104 0 -192.5 -51.5t-140 -140t-51.5 -192.5q0 -76 42.5 -164t101.5 -136q12 -9 26 -9q18 0 30.5 12.5t12.5 30.5q0 20 -16 33q-46 37 -79 105.5t-33 127.5
q0 124 87.5 211.5t211.5 87.5q96 0 180.5 -66t108.5 -158q4 -14 16 -23t25 -9h54q71 0 121 -50t50 -121q0 -46 -30 -92t-73 -64q-10 -5 -17.5 -16.5t-7.5 -22.5q0 -18 12.5 -30.5t30.5 -12.5q9 0 17 4q63 27 108 96t45 138q0 106 -75 181t-181 75h-22q-35 100 -135 174.5
t-206 80.5z" />
    <glyph glyph-name="cloud-off" unicode="&#xe7a0;" 
d="M421 767q-2 1 -4 1q-16 0 -28.5 -11.5t-13.5 -27.5v-4q0 -16 11 -28.5t27 -14.5q87 -7 164 -73t98 -150q3 -14 15 -23.5t26 -9.5h53v0q38 0 79.5 -22t62.5 -54q12 -18 20 -45.5t8 -48.5q0 -35 -13 -67q-4 -8 -4 -16q0 -12 8 -23.5t18 -16.5q8 -3 17 -3q12 0 23 7.5
t16 18.5q20 48 20 100q0 32 -12.5 73.5t-29.5 67.5q-32 48 -94 81.5t-119 33.5v0h-22q-33 96 -128.5 171t-197.5 84zM198 720q-115 -64 -166.5 -186t-18 -249.5t138.5 -207t236 -77.5h381q45 0 87 15q16 6 23.5 22t1.5 33q-4 12 -15.5 20t-24.5 8q-7 0 -14 -2
q-28 -11 -58 -11h-381h-5q-95 0 -179 65t-109 157q-10 38 -10 77q0 72 45 148.5t109 112.5q15 8 20 25t-4 33q-5 9 -16 15.5t-21 6.5q-11 0 -20 -5v0zM13 823l938 -939q13 -11 30 -11t29.5 12.5t12.5 29.5t-11 30l-939 938q-12 13 -30 13t-30.5 -12.5t-12.5 -30.5t13 -30z
" />
    <glyph glyph-name="cloud-snow" unicode="&#xe7a1;" 
d="M406 853h-22q-104 0 -192.5 -51.5t-140 -139.5t-51.5 -193q0 -76 42.5 -164t101.5 -136q12 -9 27 -9q17 0 29.5 12.5t12.5 30.5q0 20 -15 33q-47 37 -80 105.5t-33 127.5q0 124 87.5 211.5t211.5 87.5q96 0 180.5 -65.5t108.5 -158.5q4 -13 16 -22.5t25 -9.5h54
q71 0 121 -50t50 -121q0 -46 -30 -91.5t-72 -64.5q-11 -5 -18.5 -16t-7.5 -23q0 -18 12.5 -30.5t30.5 -12.5q9 0 17 4q63 28 108 96.5t45 137.5q0 106 -75 181t-181 75h-22q-35 100 -135 175t-205 81v0zM683 256zM640 256v0q0 -18 12.5 -30.5t30 -12.5t30 12.5t12.5 30.5v0
v0q0 18 -12.5 30.5t-30 12.5t-30 -12.5t-12.5 -30.5v0zM512 171zM469 170.5q0 -17.5 12.5 -30t30.5 -12.5t30.5 12.5t12.5 30t-12.5 30t-30.5 12.5t-30.5 -12.5t-12.5 -30zM341 256zM299 256v0q0 -18 12.5 -30.5t30 -12.5t30 12.5t12.5 30.5v0v0q0 18 -12.5 30.5t-30 12.5
t-30 -12.5t-12.5 -30.5v0zM341 43zM299 43v0q0 -18 12.5 -30.5t30 -12.5t30 12.5t12.5 30.5v0v0q0 17 -12.5 29.5t-30 12.5t-30 -12.5t-12.5 -29.5v0zM512 -43zM469 -42.5q0 -17.5 12.5 -30t30.5 -12.5t30.5 12.5t12.5 30t-12.5 30t-30.5 12.5t-30.5 -12.5t-12.5 -30z
M683 43zM640 43v0q0 -18 12.5 -30.5t30 -12.5t30 12.5t12.5 30.5v0v0q0 17 -12.5 29.5t-30 12.5t-30 -12.5t-12.5 -29.5v0zM683 43zM640 43v0q0 -18 12.5 -30.5t30 -12.5t30 12.5t12.5 30.5v0v0q0 17 -12.5 29.5t-30 12.5t-30 -12.5t-12.5 -29.5v0z" />
    <glyph glyph-name="command" unicode="&#xe7a2;" 
d="M768 299v0q71 0 121 -50t50 -121t-50 -121t-121 -50t-121 50t-50 121v171h171zM427 128q0 -71 -50 -121t-121 -50t-121 50t-50 121t50 121t121 50h171v-171zM256 469v0q-71 0 -121 50t-50 121t50 121t121 50t121 -50t50 -121v-171h-171zM597 640q0 71 50 121t121 50
t121 -50t50 -121t-50 -121t-121 -50h-171v171zM427 469v-170h170v170h-170zM341 555v85q0 35 -25 60t-60 25t-60 -25t-25 -60t25 -60t60 -25h85zM341 213h-85v0q-35 0 -60 -25t-25 -60t25 -60t60 -25t60 25t25 60v85zM683 128q0 -35 25 -60t60 -25t60 25t25 60t-25 60
t-60 25h-85v-85zM768 555q35 0 60 25t25 60t-25 60t-60 25t-60 -25t-25 -60v-85h85zM683 213h-342v342h342v-342z" />
    <glyph glyph-name="codepen" unicode="&#xe7a3;" 
d="M128 510v-252l384 -250l384 250v252l-384 250zM535 846l427 -277q8 -5 13.5 -15.5t5.5 -20.5v-298q0 -10 -5.5 -20.5t-13.5 -15.5l-427 -277q-10 -7 -23 -7t-23 7l-427 277q-8 5 -13.5 15.5t-5.5 20.5v298q0 10 5.5 20.5t13.5 15.5l427 277q10 7 23 7t23 -7zM555 -43v278
q0 17 -12.5 29.5t-30.5 12.5t-30.5 -12.5t-12.5 -29.5v-278q0 -17 12.5 -29.5t30.5 -12.5t30.5 12.5t12.5 29.5zM110 568q-11 8 -25 8q-17 0 -29.5 -12.5t-12.5 -30.5q0 -9 5 -19t13 -16l427 -298q11 -8 24 -8t24 8l427 298q8 6 13 16t5 19q0 18 -12.5 30.5t-29.5 12.5
q-14 0 -25 -8l-402 -281zM914 200q11 -8 25 -8q17 0 29.5 12.5t12.5 30.5q0 9 -5 19t-13 16l-427 298q-11 8 -24 8t-24 -8l-427 -298q-8 -6 -13 -16t-5 -19q0 -18 12.5 -30.5t29.5 -12.5q14 0 25 8l402 281zM469 811v-278q0 -17 12.5 -29.5t30.5 -12.5t30.5 12.5t12.5 29.5
v278q0 17 -12.5 29.5t-30.5 12.5t-30.5 -12.5t-12.5 -29.5z" />
    <glyph glyph-name="compass" unicode="&#xe7a4;" 
d="M512 -85q-95 0 -182 37t-150 100t-100 150t-37 182t37 182t100 150t150 100t182 37t182 -37t150 -100t100 -150t37 -182t-37 -182t-100 -150t-150 -100t-182 -37zM512 0q104 0 192.5 51.5t140 140t51.5 192.5q0 159 -112.5 271.5t-271.5 112.5t-271.5 -112.5
t-112.5 -271.5q0 -104 51.5 -192.5t140 -140t192.5 -51.5zM455 441l-56 -170l170 56l56 170l-170 -56v0zM733 551l-90 -271q-3 -8 -11 -16t-16 -11l-271 -90q-7 -3 -14 -3q-18 0 -30.5 12.5t-12.5 30.5q0 7 3 14l90 271q3 8 11 16t16 11l271 90q7 3 14 3q18 0 30.5 -12.5
t12.5 -30.5q0 -7 -3 -14z" />
    <glyph glyph-name="copy" unicode="&#xe7a5;" 
d="M427 427v-384v0q0 -18 12.5 -30.5t29.5 -12.5v0h384v0q18 0 30.5 12.5t12.5 30.5v0v384v0q0 17 -12.5 29.5t-30.5 12.5v0h-384v0q-17 0 -29.5 -12.5t-12.5 -29.5v0zM341 427v0q0 53 37.5 90.5t90.5 37.5v0h384v0q53 0 90.5 -37.5t37.5 -90.5v0v-384v0q0 -53 -37.5 -90.5
t-90.5 -37.5v0h-384v0q-53 0 -90.5 37.5t-37.5 90.5v0v384zM213 299h-42q-18 0 -30.5 12.5t-12.5 29.5v384q0 18 12.5 30.5t30.5 12.5h384q17 0 29.5 -12.5t12.5 -30.5v-42q0 -18 12.5 -30.5t30.5 -12.5t30.5 12.5t12.5 30.5v42q0 53 -37.5 90.5t-90.5 37.5h-384
q-53 0 -90.5 -37.5t-37.5 -90.5v-384q0 -53 37.5 -90.5t90.5 -37.5h42q18 0 30.5 12.5t12.5 30.5t-12.5 30.5t-30.5 12.5z" />
    <glyph glyph-name="corner-down-left" unicode="&#xe7a6;" 
d="M414 439q12 13 12 30t-12.5 29.5t-30.5 12.5q-17 0 -29 -12l-213 -213q-13 -12 -13 -30t13 -30l213 -213q12 -14 31 -14q17 0 29.5 12.5t12.5 30.5t-13 31l-183 183zM811 725v-298q0 -53 -37.5 -90.5t-90.5 -37.5h-512q-18 0 -30.5 -12.5t-12.5 -30.5t12.5 -30.5
t30.5 -12.5h512v0q88 0 150.5 62.5t62.5 151.5v298q0 18 -12.5 30.5t-30 12.5t-30 -12.5t-12.5 -30.5z" />
    <glyph glyph-name="corner-down-right" unicode="&#xe7a7;" 
d="M610 73q-12 -13 -12 -30t12.5 -29.5t30.5 -12.5q17 0 29 12l213 213q13 12 13 30t-13 30l-213 213q-12 12 -29 12q-18 0 -30.5 -12.5t-12.5 -29.5t12 -30l183 -183zM128 725v-298q0 -89 62.5 -151.5t150.5 -62.5h512q18 0 30.5 12.5t12.5 30.5t-12.5 30.5t-30.5 12.5
h-512q-53 0 -90.5 37.5t-37.5 90.5v298v0q0 18 -12.5 30.5t-30 12.5t-30 -12.5t-12.5 -30.5v0z" />
    <glyph glyph-name="corner-left-down" unicode="&#xe7a8;" 
d="M201 286q-13 13 -31 13t-30.5 -12.5t-12.5 -29.5q0 -19 14 -31l213 -213q12 -13 30 -13t30 13l213 213q12 12 12 29q0 18 -12.5 30.5t-29.5 12.5t-30 -12l-183 -183zM853 768h-298v0q-89 0 -151.5 -62.5t-62.5 -150.5v-512q0 -18 12.5 -30.5t30.5 -12.5t30.5 12.5
t12.5 30.5v512q0 53 37.5 90.5t90.5 37.5h298q18 0 30.5 12.5t12.5 30t-12.5 30t-30.5 12.5z" />
    <glyph glyph-name="corner-right-down" unicode="&#xe7a9;" 
d="M457 286q-13 13 -31 13t-30.5 -12.5t-12.5 -29.5q0 -19 14 -31l213 -213q12 -13 30 -13t30 13l213 213q12 12 12 29q0 18 -12.5 30.5t-29.5 12.5t-30 -12l-183 -183zM171 683h298q53 0 90.5 -37.5t37.5 -90.5v-512q0 -18 12.5 -30.5t30.5 -12.5t30.5 12.5t12.5 30.5v512
q0 88 -62.5 150.5t-151.5 62.5h-298v0q-18 0 -30.5 -12.5t-12.5 -30t12.5 -30t30.5 -12.5v0z" />
    <glyph glyph-name="corner-left-up" unicode="&#xe7aa;" 
d="M567 482q13 -12 30 -12t29.5 12.5t12.5 30.5q0 17 -12 29l-213 213q-12 13 -30 13t-30 -13l-213 -213q-14 -12 -14 -31q0 -17 12.5 -29.5t30.5 -12.5t31 13l183 183zM853 85h-298q-53 0 -90.5 37.5t-37.5 90.5v512q0 18 -12.5 30.5t-30.5 12.5t-30.5 -12.5t-12.5 -30.5
v-512q0 -88 62.5 -150.5t151.5 -62.5h298q18 0 30.5 12.5t12.5 30t-12.5 30t-30.5 12.5z" />
    <glyph glyph-name="corner-right-up" unicode="&#xe7ab;" 
d="M823 482q13 -12 30 -12t29.5 12.5t12.5 30.5q0 17 -12 29l-213 213q-12 13 -30 13t-30 -13l-213 -213q-12 -12 -12 -29q0 -18 12.5 -30.5t29.5 -12.5t30 12l183 183zM171 0h298v0q89 0 151.5 62.5t62.5 150.5v512q0 18 -12.5 30.5t-30.5 12.5t-30.5 -12.5t-12.5 -30.5
v-512q0 -53 -37.5 -90.5t-90.5 -37.5h-298q-18 0 -30.5 -12.5t-12.5 -30t12.5 -30t30.5 -12.5v0z" />
    <glyph glyph-name="corner-up-left" unicode="&#xe7ac;" 
d="M414 695q12 13 12 30t-12.5 29.5t-30.5 12.5q-17 0 -29 -12l-213 -213q-13 -12 -13 -30t13 -30l213 -213q12 -14 31 -14q17 0 29.5 12.5t12.5 30.5t-13 31l-183 183zM896 43v298q0 89 -62.5 151.5t-150.5 62.5h-512q-18 0 -30.5 -12.5t-12.5 -30.5t12.5 -30.5t30.5 -12.5
h512q53 0 90.5 -37.5t37.5 -90.5v-298q0 -18 12.5 -30.5t30 -12.5t30 12.5t12.5 30.5z" />
    <glyph glyph-name="credit-card" unicode="&#xe7ad;" 
d="M85 640v-512q0 -18 12.5 -30.5t30.5 -12.5h768v0q18 0 30.5 12.5t12.5 30.5v0v512v0q0 18 -12.5 30.5t-30.5 12.5h-768q-18 0 -30.5 -12.5t-12.5 -30.5v0zM0 640v0q0 53 37.5 90.5t90.5 37.5h768q53 0 90.5 -37.5t37.5 -90.5v-512v0q0 -53 -37.5 -90.5t-90.5 -37.5h-768
q-53 0 -90.5 37.5t-37.5 90.5v512zM43 427h938q18 0 30.5 12.5t12.5 30t-12.5 30t-30.5 12.5h-938v0q-18 0 -30.5 -12.5t-12.5 -30t12.5 -30t30.5 -12.5v0z" />
    <glyph glyph-name="corner-up-right" unicode="&#xe7ae;" 
d="M610 329q-12 -13 -12 -30t12.5 -29.5t30.5 -12.5q17 0 29 12l213 213q13 12 13 30t-13 30l-213 213q-12 12 -29 12q-18 0 -30.5 -12.5t-12.5 -29.5t12 -30l183 -183zM213 43v298q0 53 37.5 90.5t90.5 37.5h512q18 0 30.5 12.5t12.5 30.5t-12.5 30.5t-30.5 12.5h-512
q-88 0 -150.5 -62.5t-62.5 -151.5v-298q0 -18 12.5 -30.5t30 -12.5t30 12.5t12.5 30.5z" />
    <glyph glyph-name="crosshair" unicode="&#xe7af;" 
d="M512 -85q-95 0 -182 37t-150 100t-100 150t-37 182t37 182t100 150t150 100t182 37t182 -37t150 -100t100 -150t37 -182t-37 -182t-100 -150t-150 -100t-182 -37zM512 0q104 0 192.5 51.5t140 140t51.5 192.5q0 159 -112.5 271.5t-271.5 112.5t-271.5 -112.5
t-112.5 -271.5q0 -104 51.5 -192.5t140 -140t192.5 -51.5zM939 427h-171q-18 0 -30.5 -12.5t-12.5 -30.5t12.5 -30.5t30.5 -12.5h171q17 0 29.5 12.5t12.5 30.5t-12.5 30.5t-29.5 12.5zM256 427h-171q-17 0 -29.5 -12.5t-12.5 -30.5t12.5 -30.5t29.5 -12.5h171
q18 0 30.5 12.5t12.5 30.5t-12.5 30.5t-30.5 12.5zM555 640v171q0 17 -12.5 29.5t-30.5 12.5t-30.5 -12.5t-12.5 -29.5v-171q0 -18 12.5 -30.5t30.5 -12.5t30.5 12.5t12.5 30.5zM555 -43v171q0 18 -12.5 30.5t-30.5 12.5t-30.5 -12.5t-12.5 -30.5v-171q0 -17 12.5 -29.5
t30.5 -12.5t30.5 12.5t12.5 29.5z" />
    <glyph glyph-name="delete" unicode="&#xe7b0;" 
d="M896 768q53 0 90.5 -37.5t37.5 -90.5v-512q0 -53 -37.5 -90.5t-90.5 -37.5h-555v0q-19 0 -32 15l-298 341q-11 12 -11 28t11 28l298 341q13 15 32 15v0h555zM896 85q18 0 30.5 12.5t12.5 30.5v512q0 18 -12.5 30.5t-30.5 12.5h-535l-262 -299l262 -299h535zM738 542
l-256 -256q-12 -12 -12 -29q0 -18 12.5 -30.5t30.5 -12.5q17 0 29 12l256 256q13 12 13 31q0 17 -12.5 29.5t-29.5 12.5q-19 0 -31 -13zM482 482l256 -256q12 -12 29 -12q18 0 30.5 12.5t12.5 30.5q0 17 -12 29l-256 256q-12 12 -29 12q-18 0 -30.5 -12.5t-12.5 -30.5
q0 -17 12 -29z" />
    <glyph glyph-name="disc" unicode="&#xe7b1;" 
d="M512 -85q-95 0 -182 37t-150 100t-100 150t-37 182t37 182t100 150t150 100t182 37t182 -37t150 -100t100 -150t37 -182t-37 -182t-100 -150t-150 -100t-182 -37zM512 0q104 0 192.5 51.5t140 140t51.5 192.5q0 159 -112.5 271.5t-271.5 112.5t-271.5 -112.5
t-112.5 -271.5q0 -104 51.5 -192.5t140 -140t192.5 -51.5zM512 213q-71 0 -121 50t-50 121t50 121t121 50t121 -50t50 -121t-50 -121t-121 -50zM512 299q35 0 60 25t25 60t-25 60t-60 25t-60 -25t-25 -60t25 -60t60 -25z" />
    <glyph glyph-name="cpu" unicode="&#xe7b2;" 
d="M213 640v-512q0 -18 12.5 -30.5t30.5 -12.5h512q18 0 30.5 12.5t12.5 30.5v512q0 18 -12.5 30.5t-30.5 12.5h-512q-18 0 -30.5 -12.5t-12.5 -30.5zM128 640q0 53 37.5 90.5t90.5 37.5h512q53 0 90.5 -37.5t37.5 -90.5v-512q0 -53 -37.5 -90.5t-90.5 -37.5h-512
q-53 0 -90.5 37.5t-37.5 90.5v512zM427 299h170v170h-170v-170zM384 555h256q18 0 30.5 -12.5t12.5 -30.5v-256q0 -18 -12.5 -30.5t-30.5 -12.5h-256v0q-18 0 -30.5 12.5t-12.5 30.5v256q0 18 12.5 30.5t30.5 12.5zM341 853v-128q0 -17 12.5 -29.5t30.5 -12.5t30.5 12.5
t12.5 29.5v128q0 18 -12.5 30.5t-30.5 12.5t-30.5 -12.5t-12.5 -30.5zM597 853v-128q0 -17 12.5 -29.5t30.5 -12.5t30.5 12.5t12.5 29.5v128q0 18 -12.5 30.5t-30.5 12.5t-30.5 -12.5t-12.5 -30.5zM341 43v-128q0 -18 12.5 -30.5t30.5 -12.5t30.5 12.5t12.5 30.5v128
q0 17 -12.5 29.5t-30.5 12.5t-30.5 -12.5t-12.5 -29.5zM597 43v-128q0 -18 12.5 -30.5t30.5 -12.5t30.5 12.5t12.5 30.5v128q0 17 -12.5 29.5t-30.5 12.5t-30.5 -12.5t-12.5 -29.5zM853 469h128q18 0 30.5 12.5t12.5 30.5t-12.5 30.5t-30.5 12.5h-128q-17 0 -29.5 -12.5
t-12.5 -30.5t12.5 -30.5t29.5 -12.5zM853 256h128q18 0 30.5 12.5t12.5 30t-12.5 30t-30.5 12.5h-128q-17 0 -29.5 -12.5t-12.5 -30t12.5 -30t29.5 -12.5zM43 469h128q17 0 29.5 12.5t12.5 30.5t-12.5 30.5t-29.5 12.5h-128q-18 0 -30.5 -12.5t-12.5 -30.5t12.5 -30.5
t30.5 -12.5zM43 256h128q17 0 29.5 12.5t12.5 30t-12.5 30t-29.5 12.5h-128q-18 0 -30.5 -12.5t-12.5 -30t12.5 -30t30.5 -12.5z" />
    <glyph glyph-name="download-cloud" unicode="&#xe7b3;" 
d="M512 18l-140 140q-13 13 -31 13q-17 0 -29.5 -12.5t-12.5 -29.5q0 -19 13 -31l170 -171q13 -12 30.5 -12t30.5 12l170 171q12 12 12 29q0 18 -12.5 30.5t-29.5 12.5q-18 0 -30 -12zM470 341v-384q0 -17 12.5 -29.5t30 -12.5t30 12.5t12.5 29.5v384q0 18 -12.5 30.5
t-30 12.5t-30 -12.5t-12.5 -30.5zM428 766q-22 3 -44 3q-104 0 -192.5 -51.5t-140 -140t-51.5 -192.5q0 -61 28.5 -135.5t68.5 -119.5q12 -14 31 -14q18 0 30.5 12.5t12.5 29.5q0 16 -11 29q-31 35 -53 93t-22 105q0 123 87.5 210.5t211.5 87.5q96 0 181 -65.5t108 -158.5
q4 -14 16 -23t26 -9v0h53h1q70 0 120 -50t50 -121q0 -37 -21 -78t-51 -62q-18 -12 -18 -34q0 -18 12.5 -30.5t30.5 -12.5q13 0 24 8q45 31 77 92.5t32 116.5q0 106 -75 181t-181 75h-1h-22q-33 94 -126 168.5t-192 85.5v0z" />
    <glyph glyph-name="edit-" unicode="&#xe7b4;" 
d="M171 196v-153h153l512 512l-153 153zM713 798l213 -213q13 -13 13 -30.5t-13 -29.5l-555 -555q-12 -13 -30 -13h-213q-18 0 -30.5 12.5t-12.5 30.5v213q0 18 13 30l555 555q12 13 29.5 13t30.5 -13z" />
    <glyph glyph-name="edit" unicode="&#xe7b5;" 
d="M811 271v-228q0 -18 -12.5 -30.5t-30.5 -12.5h-597q-18 0 -30.5 12.5t-12.5 30.5v597q0 18 12.5 30.5t30.5 12.5h228v0q17 0 29.5 12.5t12.5 30t-12.5 30t-29.5 12.5v0h-228q-53 0 -90.5 -37.5t-37.5 -90.5v-597q0 -53 37.5 -90.5t90.5 -37.5h597q53 0 90.5 37.5
t37.5 90.5v228q0 17 -12.5 29.5t-30 12.5t-30 -12.5t-12.5 -29.5zM384 366v-110h110l384 384l-110 110zM798 841l171 -171q12 -12 12 -30t-12 -30l-427 -427q-12 -12 -30 -12h-171q-17 0 -29.5 12.5t-12.5 29.5v171q0 18 12 30l427 427q12 12 30 12t30 -12z" />
    <glyph glyph-name="droplet" unicode="&#xe7b6;" 
d="M301 501q-36 -35 -61.5 -96t-25.5 -112q0 -24 6.5 -57t15.5 -56q35 -82 110.5 -131.5t166 -49.5t165.5 49.5t110 131.5q10 23 16.5 56t6.5 57q0 51 -25.5 112t-62.5 96l-211 208zM542 798l242 -238q46 -45 79 -123.5t33 -143.5q0 -31 -8.5 -73.5t-20.5 -71.5
q-45 -106 -141.5 -169.5t-213 -63.5t-213.5 63.5t-142 169.5q-12 29 -20.5 71.5t-8.5 73.5q0 65 33 143.5t80 123.5l241 238q12 13 30 13t30 -13z" />
    <glyph glyph-name="edit-1" unicode="&#xe7b7;" 
d="M171 324v-111h110l427 427l-111 110zM627 841l171 -171q13 -12 13 -30t-13 -30l-469 -469q-13 -13 -30 -13h-171q-18 0 -30.5 12.5t-12.5 30.5v170q0 18 13 30l469 470q13 12 30.5 12t29.5 -12zM128 -85h768q18 0 30.5 12.5t12.5 30t-12.5 30t-30.5 12.5h-768
q-18 0 -30.5 -12.5t-12.5 -30t12.5 -30t30.5 -12.5z" />
    <glyph glyph-name="download" unicode="&#xe7b8;" 
d="M85 171v-128q0 -53 37.5 -90.5t90.5 -37.5h598q53 0 90.5 37.5t37.5 90.5v128q0 17 -12.5 29.5t-30.5 12.5t-30.5 -12.5t-12.5 -29.5v-128q0 -18 -12.5 -30.5t-29.5 -12.5h-598q-17 0 -29.5 12.5t-12.5 30.5v128q0 17 -12.5 29.5t-30.5 12.5t-30.5 -12.5t-12.5 -29.5z
M512 274l-141 140q-12 12 -29 12q-18 0 -30.5 -12.5t-12.5 -30.5q0 -17 12 -29l171 -171q12 -12 30 -12t30 12l171 171q12 12 12 29q0 18 -12.5 30.5t-30.5 12.5q-17 0 -29 -12zM469 811v-598q0 -17 12.5 -29.5t30.5 -12.5t30.5 12.5t12.5 29.5v598q0 17 -12.5 29.5
t-30.5 12.5t-30.5 -12.5t-12.5 -29.5z" />
    <glyph glyph-name="external-link" unicode="&#xe7b9;" 
d="M725 341v-256q0 -17 -12.5 -29.5t-29.5 -12.5h-470q-17 0 -29.5 12.5t-12.5 29.5v470q0 17 12.5 29.5t29.5 12.5h256q18 0 30.5 12.5t12.5 30.5t-12.5 30.5t-30.5 12.5h-256q-53 0 -90.5 -37.5t-37.5 -90.5v-470q0 -53 37.5 -90.5t90.5 -37.5h470q53 0 90.5 37.5
t37.5 90.5v256q0 18 -12.5 30.5t-30.5 12.5t-30.5 -12.5t-12.5 -30.5zM853 725v-213q0 -18 12.5 -30.5t30.5 -12.5t30.5 12.5t12.5 30.5v256q0 18 -12.5 30.5t-30.5 12.5h-256q-18 0 -30.5 -12.5t-12.5 -30.5t12.5 -30.5t30.5 -12.5h213zM457 269l469 469q13 12 13 31
q0 17 -12.5 29.5t-29.5 12.5q-19 0 -31 -13l-469 -469q-12 -13 -12 -30t12.5 -29.5t29.5 -12.5t30 12z" />
    <glyph glyph-name="facebook" unicode="&#xe7ba;" 
d="M384 597q0 106 75 181t181 75h128q18 0 30.5 -12.5t12.5 -29.5v-171q0 -18 -12.5 -30.5t-30.5 -12.5h-128v-85h128q18 0 30.5 -12.5t12.5 -30.5q0 -5 -2 -10l-42 -171q-4 -13 -16 -22.5t-26 -9.5h-85v-299q0 -17 -12.5 -29.5t-30.5 -12.5h-170v0q-18 0 -30.5 12.5
t-12.5 29.5v299h-85q-18 0 -30.5 12.5t-12.5 30.5v170q0 18 12.5 30.5t30.5 12.5h85v85zM725 768h-85q-71 0 -121 -50t-50 -121v-128q0 -17 -12.5 -29.5t-29.5 -12.5h-86v-86h86q17 0 29.5 -12.5t12.5 -29.5v-299h86v299q0 17 12.5 29.5t29.5 12.5h95l21 86h-116
q-17 0 -29.5 12.5t-12.5 29.5v128q0 36 25 61t60 25h85v85z" />
    <glyph glyph-name="fast-forward" unicode="&#xe7bb;" 
d="M581 52q-12 -9 -26 -9q-18 0 -30.5 12.5t-12.5 29.5v0v598v0q0 17 12.5 29.5t30.5 12.5q14 0 26 -9l384 -298q16 -13 16 -34t-16 -34zM869 384l-272 211v-422l272 211v0zM112 52q-12 -9 -27 -9q-17 0 -29.5 12.5t-12.5 29.5v0v598v0q0 17 12.5 29.5t29.5 12.5q15 0 27 -9
l384 -298q16 -13 16 -34t-16 -34zM400 384l-272 211v-422l272 211v0z" />
    <glyph glyph-name="eye" unicode="&#xe7bc;" 
d="M110 354q39 -61 86 -112q148 -157 316 -157t316 158q25 26 55.5 67.5t49.5 73.5q-19 32 -49.5 73.5t-55.5 67.5q-148 158 -316 158t-315 -158q-26 -26 -56.5 -67.5t-49.5 -73.5q9 -15 19 -30v0zM5 403q11 23 33 58q43 65 96 123q173 184 378 184t378 -184q53 -58 96 -123
q22 -34 34 -58q4 -9 4 -19t-4 -19q-12 -24 -34 -58q-43 -65 -96 -123q-173 -184 -378 -184t-378 184q-53 58 -96 123q-18 28 -33 58q-5 9 -5 19t5 19v0zM512 213q-71 0 -121 50t-50 121t50 121t121 50t121 -50t50 -121t-50 -121t-121 -50zM512 299q35 0 60 25t25 60t-25 60
t-60 25t-60 -25t-25 -60t25 -60t60 -25z" />
    <glyph glyph-name="feather" unicode="&#xe7bd;" 
d="M606 55q-12 -12 -30 -12h-363q-17 0 -29.5 12.5t-12.5 29.5v363q0 18 12 30l288 288q36 36 98 62t113 26q124 0 211.5 -87.5t87.5 -211.5q0 -51 -25.5 -113t-61.5 -98l-288 -289v0zM833 404q27 26 46 71t19 82q0 88 -62.5 151t-150.5 63q-38 0 -82.5 -19t-71.5 -46
l-275 -276v-302h302zM653 585l-598 -598q-12 -12 -12 -29q0 -18 12.5 -30.5t30.5 -12.5q17 0 29 12l598 598q13 12 13 30t-12.5 30.5t-30.5 12.5t-30 -13zM725 299h-341q-18 0 -30.5 -12.5t-12.5 -30.5t12.5 -30.5t30.5 -12.5h341q18 0 30.5 12.5t12.5 30.5t-12.5 30.5
t-30.5 12.5z" />
    <glyph glyph-name="eye-off" unicode="&#xe7be;" 
d="M285 603q17 13 17 34q0 18 -12.5 30.5t-30.5 12.5q-14 0 -26 -9q-59 -45 -125.5 -123.5t-101.5 -143.5q-5 -10 -5 -20t4 -19q12 -23 34 -58q43 -67 96 -123q172 -184 377 -184q65 1 146.5 29.5t132.5 67.5q18 12 18 34q0 18 -12.5 30.5t-30.5 12.5q-15 0 -26 -10
q-42 -32 -109 -55t-119 -24q-168 0 -315 157q-25 27 -56 68.5t-49 73.5q31 53 87.5 117.5t105.5 101.5zM857 275q-10 -12 -10 -27q0 -18 12.5 -30.5t29.5 -12.5q20 0 33 15q56 67 97 144q5 9 5 20q0 10 -5 19q-11 23 -33 57q-43 66 -96 123q-173 185 -378 185h-1
q-50 0 -98 -12q-14 -3 -23.5 -15t-9.5 -26q0 -18 12.5 -30.5t30.5 -12.5q5 0 9 1q39 9 79 9h1q168 0 316 -157q25 -27 55.5 -68t49.5 -73q-34 -58 -76 -109zM571 322q-10 -11 -28.5 -19t-33.5 -8q-36 0 -61 25t-25 60q0 16 8.5 34t19.5 29q14 13 14 31t-12.5 30.5
t-30.5 12.5q-17 0 -29 -12q-23 -21 -38.5 -57t-15.5 -67q0 -71 50 -121t120 -50q31 0 67.5 16t57.5 38q11 13 11 29q0 18 -12.5 30.5t-29.5 12.5q-19 0 -32 -14zM13 823l938 -939q13 -11 30 -11t29.5 12.5t12.5 29.5t-11 30l-939 938q-12 13 -30 13t-30.5 -12.5t-12.5 -30.5
t13 -30z" />
    <glyph glyph-name="file-minus" unicode="&#xe7bf;" 
d="M597 853q18 0 30 -12l256 -256q13 -13 13 -30v-512q0 -53 -37.5 -90.5t-90.5 -37.5h-512q-53 0 -90.5 37.5t-37.5 90.5v682q0 53 37.5 90.5t90.5 37.5h341zM256 768q-18 0 -30.5 -12.5t-12.5 -30.5v-682q0 -18 12.5 -30.5t30.5 -12.5h512q18 0 30.5 12.5t12.5 30.5v494
l-231 231h-324zM640 811q0 17 -12.5 29.5t-30 12.5t-30 -12.5t-12.5 -29.5v-256q0 -18 12.5 -30.5t29.5 -12.5h256q18 0 30.5 12.5t12.5 30t-12.5 30t-30.5 12.5h-213v214zM384 213h256q18 0 30.5 12.5t12.5 30.5t-12.5 30.5t-30.5 12.5h-256q-18 0 -30.5 -12.5t-12.5 -30.5
t12.5 -30.5t30.5 -12.5z" />
    <glyph glyph-name="file-plus" unicode="&#xe7c0;" 
d="M597 853q18 0 30 -12l256 -256q13 -13 13 -30v-512q0 -53 -37.5 -90.5t-90.5 -37.5h-512q-53 0 -90.5 37.5t-37.5 90.5v682q0 53 37.5 90.5t90.5 37.5h341zM256 768q-18 0 -30.5 -12.5t-12.5 -30.5v-682q0 -18 12.5 -30.5t30.5 -12.5h512q18 0 30.5 12.5t12.5 30.5v494
l-231 231h-324zM640 811q0 17 -12.5 29.5t-30 12.5t-30 -12.5t-12.5 -29.5v-256q0 -18 12.5 -30.5t29.5 -12.5h256q18 0 30.5 12.5t12.5 30t-12.5 30t-30.5 12.5h-213v214zM555 128v256q0 18 -12.5 30.5t-30.5 12.5t-30.5 -12.5t-12.5 -30.5v-256q0 -18 12.5 -30.5
t30.5 -12.5t30.5 12.5t12.5 30.5zM384 213h256q18 0 30.5 12.5t12.5 30.5t-12.5 30.5t-30.5 12.5h-256q-18 0 -30.5 -12.5t-12.5 -30.5t12.5 -30.5t30.5 -12.5z" />
    <glyph glyph-name="file-text" unicode="&#xe7c1;" 
d="M597 853q18 0 30 -12l256 -256q13 -13 13 -30v-512q0 -53 -37.5 -90.5t-90.5 -37.5h-512q-53 0 -90.5 37.5t-37.5 90.5v682q0 53 37.5 90.5t90.5 37.5h341zM256 768q-18 0 -30.5 -12.5t-12.5 -30.5v-682q0 -18 12.5 -30.5t30.5 -12.5h512q18 0 30.5 12.5t12.5 30.5v494
l-231 231h-324zM640 811q0 17 -12.5 29.5t-30 12.5t-30 -12.5t-12.5 -29.5v-256q0 -18 12.5 -30.5t29.5 -12.5h256q18 0 30.5 12.5t12.5 30t-12.5 30t-30.5 12.5h-213v214zM683 384h-342q-17 0 -29.5 -12.5t-12.5 -30t12.5 -30t29.5 -12.5h342q17 0 29.5 12.5t12.5 30
t-12.5 30t-29.5 12.5zM683 213h-342q-17 0 -29.5 -12.5t-12.5 -30t12.5 -30t29.5 -12.5h342q17 0 29.5 12.5t12.5 30t-12.5 30t-29.5 12.5zM427 555h-86q-17 0 -29.5 -12.5t-12.5 -30.5t12.5 -30.5t29.5 -12.5h86q17 0 29.5 12.5t12.5 30.5t-12.5 30.5t-29.5 12.5z" />
    <glyph glyph-name="file" unicode="&#xe7c2;" 
d="M555 853q17 0 30 -12l298 -299q13 -12 13 -30v-469q0 -53 -37.5 -90.5t-90.5 -37.5h-512q-53 0 -90.5 37.5t-37.5 90.5v682q0 53 37.5 90.5t90.5 37.5h299zM256 768q-18 0 -30.5 -12.5t-12.5 -30.5v-682q0 -18 12.5 -30.5t30.5 -12.5h512q18 0 30.5 12.5t12.5 30.5v451
l-274 274h-281zM597 811q0 17 -12.5 29.5t-30 12.5t-30 -12.5t-12.5 -29.5v-299q0 -18 12.5 -30.5t30.5 -12.5h298q18 0 30.5 12.5t12.5 30.5t-12.5 30.5t-30.5 12.5h-256v256z" />
    <glyph glyph-name="filter" unicode="&#xe7c3;" 
d="M384 349l-331 391q-10 12 -10 28q0 18 12.5 30.5t29.5 12.5v0h854v0q17 0 29.5 -12.5t12.5 -30.5q0 -16 -10 -28l-331 -391v-349q0 -18 -12.5 -30.5t-30.5 -12.5q-10 0 -19 5l-170 85q-10 5 -17 16t-7 22v264zM177 725l282 -333q10 -12 10 -28v0v-252l86 -43v295v0
q0 16 10 28l282 333h-670z" />
    <glyph glyph-name="folder" unicode="&#xe7c4;" 
d="M171 725q-18 0 -30.5 -12.5t-12.5 -29.5v-598q0 -17 12.5 -29.5t30.5 -12.5h682q18 0 30.5 12.5t12.5 29.5v470q0 17 -12.5 29.5t-30.5 12.5h-384v0q-9 0 -19.5 5.5t-15.5 13.5l-73 109h-190zM853 683q53 0 90.5 -37.5t37.5 -90.5v-470q0 -53 -37.5 -90.5t-90.5 -37.5
h-682q-53 0 -90.5 37.5t-37.5 90.5v598q0 53 37.5 90.5t90.5 37.5h213v0q9 0 19.5 -5.5t15.5 -13.5l73 -109h361z" />
    <glyph glyph-name="film" unicode="&#xe7c5;" 
d="M128 718v-668q0 -20 15 -35t35 -15h668q21 0 35.5 14.5t14.5 35.5v668q0 21 -14.5 35.5t-35.5 14.5h-668q-21 0 -35.5 -14.5t-14.5 -35.5zM43 718q0 56 39.5 95.5t95.5 39.5h668q56 0 95.5 -39.5t39.5 -95.5v-668q0 -56 -39.5 -95.5t-95.5 -39.5h-668q-56 0 -95.5 39.5
t-39.5 95.5v668zM256 811v-854q0 -17 12.5 -29.5t30 -12.5t30 12.5t12.5 29.5v854v0q0 17 -12.5 29.5t-30 12.5t-30 -12.5t-12.5 -29.5v0zM683 811v-854q0 -17 12.5 -29.5t30 -12.5t30 12.5t12.5 29.5v854q0 17 -12.5 29.5t-30 12.5t-30 -12.5t-12.5 -29.5zM85 341h854
q17 0 29.5 12.5t12.5 30.5t-12.5 30.5t-29.5 12.5h-854q-17 0 -29.5 -12.5t-12.5 -30.5t12.5 -30.5t29.5 -12.5zM85 555h214v0q17 0 29.5 12.5t12.5 30t-12.5 30t-29.5 12.5v0h-214v0q-17 0 -29.5 -12.5t-12.5 -30t12.5 -30t29.5 -12.5v0zM85 128h214q17 0 29.5 12.5
t12.5 30t-12.5 30t-29.5 12.5h-214q-17 0 -29.5 -12.5t-12.5 -30t12.5 -30t29.5 -12.5zM725 128h214q17 0 29.5 12.5t12.5 30t-12.5 30t-29.5 12.5h-214q-17 0 -29.5 -12.5t-12.5 -30t12.5 -30t29.5 -12.5zM725 555h214q17 0 29.5 12.5t12.5 30t-12.5 30t-29.5 12.5h-214
q-17 0 -29.5 -12.5t-12.5 -30t12.5 -30t29.5 -12.5z" />
    <glyph glyph-name="flag" unicode="&#xe7c6;" 
d="M201 226q-20 -20 -46.5 -9.5t-26.5 39.5v512q0 18 13 30q16 17 51 31q61 24 149 24q44 0 82.5 -9.5t104.5 -35.5q58 -24 89.5 -32t65.5 -8q71 0 117 18q19 8 23 12q20 20 46.5 9t26.5 -39v-512q0 -18 -13 -30q-16 -17 -51 -31q-61 -24 -149 -24q-44 0 -82.5 9.5
t-104.5 35.5q-58 24 -89.5 32t-65.5 8q-71 0 -117 -18q-19 -8 -23 -12v0zM341 341q44 0 82.5 -9.5t104.5 -35.5q58 -24 89.5 -32t65.5 -8q71 0 117 18q6 3 11 5v421q-55 -17 -128 -17q-44 0 -82.5 9.5t-104.5 35.5q-58 24 -89.5 32t-65.5 8q-71 0 -117 -18q-5 -2 -11 -5
v-421q55 17 128 17zM213 -43v299q0 18 -12.5 30.5t-30 12.5t-30 -12.5t-12.5 -30.5v-299q0 -17 12.5 -29.5t30 -12.5t30 12.5t12.5 29.5z" />
    <glyph glyph-name="globe" unicode="&#xe7c7;" 
d="M512 -85q-95 0 -182 37t-150 100t-100 150t-37 182t37 182t100 150t150 100t182 37t182 -37t150 -100t100 -150t37 -182t-37 -182t-100 -150t-150 -100t-182 -37zM512 0q104 0 192.5 51.5t140 140t51.5 192.5q0 159 -112.5 271.5t-271.5 112.5t-271.5 -112.5
t-112.5 -271.5q0 -104 51.5 -192.5t140 -140t192.5 -51.5zM85 341h854q17 0 29.5 12.5t12.5 30.5t-12.5 30.5t-29.5 12.5h-854q-17 0 -29.5 -12.5t-12.5 -30.5t12.5 -30.5t29.5 -12.5zM384 385q2 -84 39.5 -189.5t88.5 -172.5q51 66 88.5 171.5t39.5 188.5
q-2 84 -39.5 189.5t-88.5 172.5q-51 -66 -88.5 -171.5t-39.5 -188.5zM543 839q74 -80 127 -213.5t55 -242.5q-2 -108 -55 -241t-127 -213q-12 -14 -31 -14t-31 14q-74 80 -127 213.5t-55 242.5q2 108 55 241t127 213q12 14 31 14t31 -14v0z" />
    <glyph glyph-name="github" unicode="&#xe7c8;" 
d="M372 84q-70 -20 -104.5 -10.5t-70.5 53.5q-2 2 -10 12t-9 13q-22 26 -40.5 40t-41.5 20q-5 1 -10 1q-18 0 -30.5 -12.5t-12.5 -29.5q0 -14 9.5 -26t22.5 -16q14 -3 36 -31q2 -2 10 -12t10 -12q34 -43 69.5 -64t85 -25t110.5 17q13 4 22 16t9 25q0 17 -12.5 29.5
t-30.5 12.5q-6 0 -12 -1zM960 490q0 39 -17 89t-42 81q9 32 9 65q0 54 -21 102q-8 19 -27 25q-5 1 -9 1q-68 10 -178 -60q-70 17 -141.5 17t-141.5 -17q-110 70 -178 60q-5 0 -9 -1q-19 -6 -27 -25q-21 -48 -21 -102q0 -33 9 -65q-25 -31 -42 -81t-17 -89v-2q0 -143 62 -222
t185 -107q-13 -33 -13 -69v-13v-162q0 -18 12.5 -30.5t30.5 -12.5t30.5 12.5t12.5 30.5v165q-4 48 28 80q12 13 12 30q0 15 -11 27.5t-27 14.5q-125 16 -181 73t-56 184v1q0 31 15.5 69.5t36.5 60.5q12 13 12 30q0 8 -3 15q-11 29 -11 60q0 21 5 42q5 -1 10 -3
q44 -12 103 -52q11 -7 24 -7q6 0 11 1q68 19 138.5 19t137.5 -19q6 -1 12 -1q13 0 23 7q59 40 103 52q6 2 10 3q5 -21 5 -42q0 -31 -11 -60q-2 -7 -2 -15q0 -17 11 -30q22 -22 37.5 -60.5t15.5 -69.5q0 -128 -56.5 -185.5t-180.5 -70.5q-16 -2 -27 -14.5t-11 -28.5
q0 -17 12 -30q12 -12 20 -32.5t8 -37.5v-8v-168q0 -18 12.5 -30.5t30 -12.5t30 12.5t12.5 30.5v165q1 6 1 13q0 35 -13 66q123 28 185 107t62 224z" />
    <glyph glyph-name="hash" unicode="&#xe7c9;" 
d="M171 469h682q18 0 30.5 12.5t12.5 30.5t-12.5 30.5t-30.5 12.5h-682q-18 0 -30.5 -12.5t-12.5 -30.5t12.5 -30.5t30.5 -12.5zM171 213h682q18 0 30.5 12.5t12.5 30.5t-12.5 30.5t-30.5 12.5h-682q-18 0 -30.5 -12.5t-12.5 -30.5t12.5 -30.5t30.5 -12.5zM384 773l-85 -768
v-5q0 -18 12.5 -30.5t29.5 -12.5q16 0 28.5 11.5t14.5 26.5l85 768v5q0 18 -12.5 30.5t-29.5 12.5q-16 0 -28.5 -11.5t-14.5 -26.5zM640 773l-85 -768v-5q0 -18 12.5 -30.5t29.5 -12.5q16 0 28.5 11.5t14.5 26.5l85 768v5q0 18 -12.5 30.5t-29.5 12.5q-16 0 -28.5 -11.5
t-14.5 -26.5z" />
    <glyph glyph-name="grid" unicode="&#xe7ca;" 
d="M171 512h213v213h-213v-213zM128 811h299q17 0 29.5 -12.5t12.5 -30.5v-299q0 -17 -12.5 -29.5t-29.5 -12.5h-299q-18 0 -30.5 12.5t-12.5 29.5v299q0 18 12.5 30.5t30.5 12.5zM640 512h213v213h-213v-213zM597 811h299q18 0 30.5 -12.5t12.5 -30.5v-299
q0 -17 -12.5 -29.5t-30.5 -12.5h-299q-17 0 -29.5 12.5t-12.5 29.5v299q0 18 12.5 30.5t29.5 12.5zM640 43h213v213h-213v-213zM597 341h299q18 0 30.5 -12.5t12.5 -29.5v-299q0 -18 -12.5 -30.5t-30.5 -12.5h-299q-17 0 -29.5 12.5t-12.5 30.5v299q0 17 12.5 29.5
t29.5 12.5zM171 43h213v213h-213v-213zM128 341h299q17 0 29.5 -12.5t12.5 -29.5v-299q0 -18 -12.5 -30.5t-29.5 -12.5h-299q-18 0 -30.5 12.5t-12.5 30.5v299q0 17 12.5 29.5t30.5 12.5z" />
    <glyph glyph-name="headphones" unicode="&#xe7cb;" 
d="M171 128v256q0 93 45.5 171.5t124 124t171.5 45.5t171.5 -45.5t124 -124t45.5 -171.5v-256q0 -18 12.5 -30.5t30.5 -12.5t30.5 12.5t12.5 30.5v256q0 116 -57.5 214t-155.5 155.5t-214 57.5t-214 -57.5t-155.5 -155.5t-57.5 -214v-256q0 -18 12.5 -30.5t30.5 -12.5
t30.5 12.5t12.5 30.5zM853 256h-85q-18 0 -30.5 -12.5t-12.5 -30.5v-128q0 -17 12.5 -29.5t30.5 -12.5h43q17 0 29.5 12.5t12.5 29.5v171zM939 85q0 -53 -37.5 -90.5t-90.5 -37.5h-43q-53 0 -90.5 37.5t-37.5 90.5v128q0 53 37.5 90.5t90.5 37.5h128q18 0 30.5 -12.5
t12.5 -29.5v-214zM85 85v214q0 17 12.5 29.5t30.5 12.5h128q53 0 90.5 -37.5t37.5 -90.5v-128q0 -53 -37.5 -90.5t-90.5 -37.5h-43q-53 0 -90.5 37.5t-37.5 90.5zM171 256v-171q0 -17 12.5 -29.5t29.5 -12.5h43v0q18 0 30.5 12.5t12.5 29.5v128q0 18 -12.5 30.5t-30.5 12.5
h-85z" />
    <glyph glyph-name="heart" unicode="&#xe7cc;" 
d="M527 729q34 34 91.5 58t104.5 24q115 0 196.5 -81.5t81.5 -196.5v0q0 -47 -24 -104.5t-58 -91.5l-377 -377q-12 -12 -30 -12t-30 12l-377 377q-34 34 -58 91.5t-24 104.5q0 115 81.5 196.5t196.5 81.5q47 0 104.5 -24t91.5 -58l15 -15zM814 352l45 46q23 23 39.5 62.5
t16.5 72.5q0 80 -56 136t-136 56v0q-33 0 -72.5 -16.5t-63.5 -39.5l-45 -45q-12 -13 -30 -13t-30 13l-45 45q-24 23 -63.5 39.5t-72.5 16.5q-80 0 -136 -56t-56 -136q0 -33 16.5 -72.5t39.5 -62.5l347 -347z" />
    <glyph glyph-name="home" unicode="&#xe7cd;" 
d="M171 43q0 -18 12.5 -30.5t29.5 -12.5h598q17 0 29.5 12.5t12.5 30.5v448l-341 266l-341 -266v-448zM102 546l384 298q11 9 26 9t26 -9l384 -298q17 -13 17 -34v0v-469q0 -53 -37.5 -90.5t-90.5 -37.5h-598q-53 0 -90.5 37.5t-37.5 90.5v469v0q0 21 17 34zM597 341v-384
q0 -17 12.5 -29.5t30.5 -12.5t30.5 12.5t12.5 29.5v427q0 18 -12.5 30.5t-30.5 12.5h-256v0q-18 0 -30.5 -12.5t-12.5 -30.5v-427q0 -17 12.5 -29.5t30.5 -12.5t30.5 12.5t12.5 29.5v384h170z" />
    <glyph glyph-name="inbox" unicode="&#xe7ce;" 
d="M449 256l-72 109q-5 8 -15.5 13.5t-20.5 5.5v0h-256v0q-17 0 -29.5 -12.5t-12.5 -30t12.5 -30t29.5 -12.5v0h234l72 -109q5 -8 15.5 -13.5t20.5 -5.5v0h170v0q10 0 20.5 5.5t15.5 13.5l72 109h234q17 0 29.5 12.5t12.5 30t-12.5 30t-29.5 12.5h-256v0q-10 0 -20.5 -5.5
t-15.5 -13.5l-72 -109h-126zM311 768h402v0q34 0 68.5 -22.5t48.5 -53.5l148 -333q3 -9 3 -18v0v-213q0 -53 -37.5 -90.5t-90.5 -37.5h-682q-53 0 -90.5 37.5t-37.5 90.5v213v0q0 9 3 18l148 333q14 31 48.5 53.5t68.5 22.5v0zM752 657q-5 11 -16.5 18.5t-22.5 7.5v0h-402v0
q-11 0 -22.5 -7.5t-16.5 -18.5l-144 -325v-204q0 -18 12.5 -30.5t30.5 -12.5h682q18 0 30.5 12.5t12.5 30.5v204z" />
    <glyph glyph-name="image" unicode="&#xe7cf;" 
d="M171 683v-598q0 -17 12.5 -29.5t29.5 -12.5h598q17 0 29.5 12.5t12.5 29.5v598q0 17 -12.5 29.5t-29.5 12.5h-598q-17 0 -29.5 -12.5t-12.5 -29.5zM85 683q0 53 37.5 90.5t90.5 37.5h598q53 0 90.5 -37.5t37.5 -90.5v-598v0q0 -53 -37.5 -90.5t-90.5 -37.5h-598
q-53 0 -90.5 37.5t-37.5 90.5v598zM363 427v0q-45 0 -76 31t-31 75t31 75.5t76 31.5v0q44 0 75 -31.5t31 -75.5t-31 -75t-75 -31zM362.5 512q8.5 0 15 6.5t6.5 15t-6.5 15t-15 6.5t-15 -6.5t-6.5 -15t6.5 -15t15 -6.5zM866 226q12 -12 29 -12q18 0 30.5 12.5t12.5 30.5
q0 17 -12 29l-213 213q-13 13 -30.5 13t-29.5 -13l-470 -469q-12 -12 -12 -29q0 -18 12.5 -30.5t30.5 -12.5q17 0 29 12l440 439z" />
    <glyph glyph-name="info" unicode="&#xe7d0;" 
d="M512 -85q-95 0 -182 37t-150 100t-100 150t-37 182t37 182t100 150t150 100t182 37t182 -37t150 -100t100 -150t37 -182t-37 -182t-100 -150t-150 -100t-182 -37zM512 0q104 0 192.5 51.5t140 140t51.5 192.5q0 159 -112.5 271.5t-271.5 112.5t-271.5 -112.5
t-112.5 -271.5q0 -104 51.5 -192.5t140 -140t192.5 -51.5zM555 213v171q0 18 -12.5 30.5t-30.5 12.5t-30.5 -12.5t-12.5 -30.5v-171q0 -17 12.5 -29.5t30.5 -12.5t30.5 12.5t12.5 29.5zM512 555zM469 554.5q0 -17.5 12.5 -30t30.5 -12.5t30.5 12.5t12.5 30t-12.5 30
t-30.5 12.5t-30.5 -12.5t-12.5 -30z" />
    <glyph glyph-name="instagram" unicode="&#xe7d1;" 
d="M128 598v-428v0q0 -70 50 -120t120 -50h428q70 0 120 50t50 120v428q0 70 -50 120t-120 50h-428v0q-70 0 -120 -50t-50 -120zM43 598q0 105 75 180t180 75h428q105 0 180 -75t75 -180v-428v0q0 -105 -75 -180t-180 -75h-428v0q-105 0 -180 75t-75 180v428zM640 405
q-6 46 -43 78.5t-84 32.5q-53 0 -90.5 -37.5t-37.5 -90.5q0 -10 2 -21q7 -45 44 -76.5t83 -31.5q53 0 90.5 37.5t37.5 90.5q0 9 -2 18v0zM725 417q2 -15 2 -31q0 -88 -62.5 -151t-150.5 -63q-76 0 -138 53.5t-73 129.5q-3 15 -3 31q0 88 63 150.5t151 62.5q76 0 138 -53
t73 -129v0zM725 640zM683 640v0q0 -18 12.5 -30.5t30 -12.5t30 12.5t12.5 30.5v0v0q0 18 -12.5 30.5t-30 12.5t-30 -12.5t-12.5 -30.5v0z" />
    <glyph glyph-name="layout" unicode="&#xe7d2;" 
d="M171 683v-598q0 -17 12.5 -29.5t29.5 -12.5h598q17 0 29.5 12.5t12.5 29.5v598q0 17 -12.5 29.5t-29.5 12.5h-598q-17 0 -29.5 -12.5t-12.5 -29.5zM85 683q0 53 37.5 90.5t90.5 37.5h598q53 0 90.5 -37.5t37.5 -90.5v-598v0q0 -53 -37.5 -90.5t-90.5 -37.5h-598
q-53 0 -90.5 37.5t-37.5 90.5v598zM128 469h768q18 0 30.5 12.5t12.5 30.5t-12.5 30.5t-30.5 12.5h-768q-18 0 -30.5 -12.5t-12.5 -30.5t12.5 -30.5t30.5 -12.5zM427 0v512q0 18 -12.5 30.5t-30.5 12.5t-30.5 -12.5t-12.5 -30.5v-512q0 -18 12.5 -30.5t30.5 -12.5t30.5 12.5
t12.5 30.5z" />
    <glyph glyph-name="link-" unicode="&#xe7d3;" 
d="M640 555h128q71 0 121 -50t50 -121t-50 -121t-121 -50h-128q-18 0 -30.5 -12.5t-12.5 -30t12.5 -30t30.5 -12.5h128q106 0 181 75t75 181t-75 181t-181 75h-128q-18 0 -30.5 -12.5t-12.5 -30t12.5 -30t30.5 -12.5zM384 213h-128q-71 0 -121 50t-50 121t50 121t121 50h128
v0q18 0 30.5 12.5t12.5 30t-12.5 30t-30.5 12.5v0h-128q-106 0 -181 -75t-75 -181t75 -181t181 -75h128q18 0 30.5 12.5t12.5 30t-12.5 30t-30.5 12.5zM341 341h342q17 0 29.5 12.5t12.5 30.5t-12.5 30.5t-29.5 12.5h-342q-17 0 -29.5 -12.5t-12.5 -30.5t12.5 -30.5
t29.5 -12.5z" />
    <glyph glyph-name="layers" unicode="&#xe7d4;" 
d="M493 849q9 4 19 4t19 -4l427 -214q9 -4 16 -15.5t7 -22.5t-7 -22t-16 -16l-427 -213q-9 -5 -19 -5t-19 5l-427 213q-9 5 -16 16t-7 22t7 22.5t16 15.5zM181 597l331 -165l331 165l-331 166zM104 209q-8 4 -17 4q-18 0 -30.5 -12.5t-12.5 -30.5q0 -10 6.5 -21t15.5 -16
l427 -214q9 -4 19 -4t19 4l427 214q9 5 15.5 16t6.5 21q0 18 -12.5 30.5t-30.5 12.5q-9 0 -17 -4l-408 -204zM104 422q-8 4 -17 4q-18 0 -30.5 -12.5t-12.5 -30.5q0 -10 6.5 -21t15.5 -16l427 -213q9 -5 19 -5t19 5l427 213q9 5 15.5 16t6.5 21q0 18 -12.5 30.5t-30.5 12.5
q-9 0 -17 -4l-408 -204z" />
    <glyph glyph-name="life-buoy" unicode="&#xe7d5;" 
d="M512 -85q-95 0 -182 37t-150 100t-100 150t-37 182t37 182t100 150t150 100t182 37t182 -37t150 -100t100 -150t37 -182t-37 -182t-100 -150t-150 -100t-182 -37zM512 0q104 0 192.5 51.5t140 140t51.5 192.5q0 159 -112.5 271.5t-271.5 112.5t-271.5 -112.5
t-112.5 -271.5q0 -104 51.5 -192.5t140 -140t192.5 -51.5zM512 171q-88 0 -150.5 62.5t-62.5 150.5t62.5 150.5t150.5 62.5t150.5 -62.5t62.5 -150.5t-62.5 -150.5t-150.5 -62.5zM512 256q53 0 90.5 37.5t37.5 90.5t-37.5 90.5t-90.5 37.5t-90.5 -37.5t-37.5 -90.5
t37.5 -90.5t90.5 -37.5zM180 655l181 -180q12 -12 30 -12q17 0 29.5 12.5t12.5 29.5q0 18 -12 30l-180 181q-13 12 -30 12q-18 0 -30.5 -12.5t-12.5 -30.5q0 -17 12 -30zM603 233l180 -181q13 -12 30 -12q18 0 30.5 12.5t12.5 30.5q0 17 -12 30l-181 180q-12 12 -30 12
q-17 0 -29.5 -12.5t-12.5 -29.5q0 -18 12 -30zM663 475l181 180q13 13 13 31t-12.5 30.5t-30.5 12.5t-31 -13l-180 -181q-13 -13 -13 -31q0 -17 12.5 -29.5t29.5 -12.5q18 0 31 13zM663 475l151 150q13 13 13 31t-12.5 30.5t-30.5 12.5t-31 -13l-150 -151q-13 -13 -13 -31
q0 -17 12.5 -29.5t29.5 -12.5q18 0 31 13zM241 52l180 181q12 12 12 30q0 17 -12.5 29.5t-29.5 12.5q-18 0 -30 -12l-181 -180q-12 -13 -12 -30q0 -18 12.5 -30.5t30.5 -12.5q17 0 30 12z" />
    <glyph glyph-name="link" unicode="&#xe7d6;" 
d="M393 316q31 -43 91 -73t114 -30q43 0 96 22t85 53l128 128q32 31 55 85t23 100q0 105 -75 180.5t-181 75.5q-45 0 -99 -23t-85 -55l-74 -74q-13 -12 -13 -31q0 -17 12.5 -29.5t30.5 -12.5t30 13l74 73q20 19 55 33t63 14q29 0 64.5 -14.5t56 -35.5t35.5 -56t15 -65
q0 -28 -14 -63t-34 -55l-128 -128q-20 -20 -55.5 -35t-64.5 -15q-36 0 -76 20.5t-61 48.5q-13 17 -34 17q-18 0 -30.5 -12.5t-12.5 -30.5q0 -14 8 -25h1zM631 452q-31 43 -91 73t-114 30q-43 0 -96 -22t-85 -53l-128 -128q-32 -31 -55 -85t-23 -100q0 -105 75 -180.5
t181 -75.5q45 0 99 23t85 55l73 74q12 12 12 29q0 18 -12.5 30.5t-29.5 12.5q-18 0 -30 -12l-73 -73q-50 -48 -119.5 -47.5t-119.5 50.5q-20 21 -35 56t-15 65q0 28 14 63t34 55l128 128q20 20 55.5 35t64.5 15q36 0 76 -20.5t61 -48.5q13 -17 34 -17q18 0 30.5 12.5
t12.5 30.5q0 14 -8 25h-1z" />
    <glyph glyph-name="list" unicode="&#xe7d7;" 
d="M341 597h555q18 0 30.5 12.5t12.5 30.5t-12.5 30.5t-30.5 12.5h-555q-17 0 -29.5 -12.5t-12.5 -30.5t12.5 -30.5t29.5 -12.5zM341 341h555q18 0 30.5 12.5t12.5 30.5t-12.5 30.5t-30.5 12.5h-555q-17 0 -29.5 -12.5t-12.5 -30.5t12.5 -30.5t29.5 -12.5zM341 85h555
q18 0 30.5 12.5t12.5 30.5t-12.5 30.5t-30.5 12.5h-555q-17 0 -29.5 -12.5t-12.5 -30.5t12.5 -30.5t29.5 -12.5zM128 640zM85 640q0 -18 12.5 -30.5t30.5 -12.5t30.5 12.5t12.5 30.5t-12.5 30.5t-30.5 12.5t-30.5 -12.5t-12.5 -30.5zM128 384zM85 384q0 -18 12.5 -30.5
t30.5 -12.5t30.5 12.5t12.5 30.5t-12.5 30.5t-30.5 12.5t-30.5 -12.5t-12.5 -30.5zM128 128zM85 128q0 -18 12.5 -30.5t30.5 -12.5t30.5 12.5t12.5 30.5t-12.5 30.5t-30.5 12.5t-30.5 -12.5t-12.5 -30.5z" />
    <glyph glyph-name="lock" unicode="&#xe7d8;" 
d="M171 342v-300q0 -17 12.5 -29.5t29.5 -12.5h598q17 0 29.5 12.5t12.5 29.5v300q0 17 -12.5 29.5t-29.5 12.5h-598v0q-17 0 -29.5 -12.5t-12.5 -29.5zM85 342q0 53 37.5 90t90.5 37v0h598q53 0 90.5 -37.5t37.5 -89.5v-300q0 -53 -37.5 -90t-90.5 -37v0h-598
q-53 0 -90.5 37.5t-37.5 89.5v300zM341 427v170q0 71 50 121t121 50t121 -50t50 -121v-170q0 -18 12.5 -30.5t30 -12.5t30 12.5t12.5 30.5v170v0q0 106 -75 181t-181 75t-181 -75t-75 -181v-170q0 -18 12.5 -30.5t30 -12.5t30 12.5t12.5 30.5z" />
    <glyph glyph-name="log-in" unicode="&#xe7d9;" 
d="M597 -85h214q53 0 90.5 37.5t37.5 90.5v682q0 53 -37.5 90.5t-90.5 37.5h-214q-17 0 -29.5 -12.5t-12.5 -30t12.5 -30t29.5 -12.5h214q17 0 29.5 -12.5t12.5 -30.5v-682q0 -18 -12.5 -30.5t-29.5 -12.5h-214q-17 0 -29.5 -12.5t-12.5 -30t12.5 -30t29.5 -12.5zM439 243
q-12 -12 -12 -29q0 -18 12.5 -30.5t30.5 -12.5q17 0 29 12l171 171q13 12 13 30t-13 30l-171 171q-12 12 -29 12q-18 0 -30.5 -12.5t-12.5 -30.5q0 -17 12 -29l141 -141zM640 427h-512q-18 0 -30.5 -12.5t-12.5 -30.5t12.5 -30.5t30.5 -12.5h512q18 0 30.5 12.5t12.5 30.5
t-12.5 30.5t-30.5 12.5z" />
    <glyph glyph-name="loader" unicode="&#xe7da;" 
d="M469 811v-171q0 -18 12.5 -30.5t30.5 -12.5t30.5 12.5t12.5 30.5v171q0 17 -12.5 29.5t-30.5 12.5t-30.5 -12.5t-12.5 -29.5zM469 128v-171q0 -17 12.5 -29.5t30.5 -12.5t30.5 12.5t12.5 29.5v171q0 18 -12.5 30.5t-30.5 12.5t-30.5 -12.5t-12.5 -30.5zM180 655l121 -120
q12 -12 30 -12q17 0 29.5 12.5t12.5 29.5q0 18 -12 30l-120 121q-13 12 -30 12q-18 0 -30.5 -12.5t-12.5 -30.5q0 -17 12 -30zM663 173l120 -121q13 -12 30 -12q18 0 30.5 12.5t12.5 30.5q0 17 -12 30l-121 120q-12 12 -30 12q-17 0 -29.5 -12.5t-12.5 -29.5q0 -18 12 -30z
M85 341h171q18 0 30.5 12.5t12.5 30.5t-12.5 30.5t-30.5 12.5h-171q-17 0 -29.5 -12.5t-12.5 -30.5t12.5 -30.5t29.5 -12.5zM768 341h171q17 0 29.5 12.5t12.5 30.5t-12.5 30.5t-29.5 12.5h-171q-18 0 -30.5 -12.5t-12.5 -30.5t12.5 -30.5t30.5 -12.5zM241 52l120 121
q12 12 12 30q0 17 -12.5 29.5t-29.5 12.5q-18 0 -30 -12l-121 -120q-12 -13 -12 -30q0 -18 12.5 -30.5t30.5 -12.5q17 0 30 12zM723 535l121 120q13 13 13 31t-12.5 30.5t-30.5 12.5t-31 -13l-120 -121q-13 -13 -13 -31q0 -17 12.5 -29.5t29.5 -12.5q18 0 31 13z" />
    <glyph glyph-name="mail" unicode="&#xe7db;" 
d="M171 683q-18 0 -30.5 -12.5t-12.5 -30.5v-512q0 -18 12.5 -30.5t30.5 -12.5h682q18 0 30.5 12.5t12.5 30.5v512q0 18 -12.5 30.5t-30.5 12.5h-682zM171 768h682q53 0 90.5 -37.5t37.5 -90.5v-512q0 -53 -37.5 -90.5t-90.5 -37.5h-682q-53 0 -90.5 37.5t-37.5 90.5v512
q0 53 37.5 90.5t90.5 37.5zM512 393l-402 282q-11 8 -25 8q-17 0 -29.5 -12.5t-12.5 -30.5q0 -9 5 -19.5t13 -15.5l427 -299q11 -7 24 -7t24 7l427 299q8 5 13 15.5t5 19.5q0 18 -12.5 30.5t-29.5 12.5q-14 0 -25 -8z" />
    <glyph glyph-name="log-out" unicode="&#xe7dc;" 
d="M427 0h-214q-17 0 -29.5 12.5t-12.5 30.5v682q0 18 12.5 30.5t29.5 12.5h214v0q17 0 29.5 12.5t12.5 30t-12.5 30t-29.5 12.5v0h-214q-53 0 -90.5 -37.5t-37.5 -90.5v-682q0 -53 37.5 -90.5t90.5 -37.5h214q17 0 29.5 12.5t12.5 30t-12.5 30t-29.5 12.5v0zM695 243
q-12 -12 -12 -29q0 -18 12.5 -30.5t30.5 -12.5q17 0 29 12l171 171q13 12 13 30t-13 30l-171 171q-12 12 -29 12q-18 0 -30.5 -12.5t-12.5 -30.5q0 -17 12 -29l141 -141zM896 427h-512q-18 0 -30.5 -12.5t-12.5 -30.5t12.5 -30.5t30.5 -12.5h512q18 0 30.5 12.5t12.5 30.5
t-12.5 30.5t-30.5 12.5z" />
    <glyph glyph-name="map" unicode="&#xe7dd;" 
d="M64 -80q-10 -5 -21 -5q-18 0 -30.5 12.5t-12.5 29.5v683q0 10 6.5 21t15.5 16l298 171q10 5 21 5q10 0 19 -4l321 -161l279 160q10 5 21 5q18 0 30.5 -12.5t12.5 -29.5v-683q0 -10 -6.5 -21t-15.5 -16l-298 -171q-10 -5 -21 -5q-10 0 -19 4l-321 161zM85 615v-584
l235 134q10 6 21 6q10 0 19 -5l321 -160l258 147v584l-235 -134q-10 -6 -21 -6q-10 0 -19 5l-321 160zM299 811v-683q0 -18 12.5 -30.5t30 -12.5t30 12.5t12.5 30.5v683v0q0 17 -12.5 29.5t-30 12.5t-30 -12.5t-12.5 -29.5v0zM640 640v-683q0 -17 12.5 -29.5t30 -12.5
t30 12.5t12.5 29.5v683q0 18 -12.5 30.5t-30 12.5t-30 -12.5t-12.5 -30.5z" />
    <glyph glyph-name="map-pin" unicode="&#xe7de;" 
d="M545 -7q68 54 128 116q180 191 180 360q0 93 -45.5 171.5t-124 124.5t-171.5 46t-171.5 -46t-124 -124.5t-45.5 -171.5q0 -169 180 -360q31 -32 78 -73.5t83 -68.5q18 14 33 26v0zM735 51q-35 -37 -88 -83.5t-94 -75.5q-11 -9 -17 -13q-11 -7 -24 -7t-24 7q-7 5 -17 13
q-41 29 -94 75.5t-88 83.5q-204 215 -204 418q0 116 57.5 214.5t155.5 155.5t214 57t214 -57t155.5 -155.5t57.5 -214.5q0 -203 -204 -418zM512 299v0q-71 0 -121 50t-50 120.5t50 120.5t121 50v0q71 0 121 -50t50 -120.5t-50 -120.5t-121 -50zM512 384q35 0 60 25t25 60.5
t-25 60.5t-60 25t-60 -25t-25 -60.5t25 -60.5t60 -25z" />
    <glyph glyph-name="maximize-" unicode="&#xe7df;" 
d="M853 725v-213q0 -18 12.5 -30.5t30.5 -12.5t30.5 12.5t12.5 30.5v256q0 18 -12.5 30.5t-30.5 12.5h-256q-18 0 -30.5 -12.5t-12.5 -30.5t12.5 -30.5t30.5 -12.5h213zM171 256q0 18 -12.5 30.5t-30.5 12.5t-30.5 -12.5t-12.5 -30.5v-256q0 -18 12.5 -30.5t30.5 -12.5h256
q18 0 30.5 12.5t12.5 30.5t-12.5 30.5t-30.5 12.5h-213v213zM866 798l-299 -299q-13 -12 -13 -30t12.5 -30.5t30.5 -12.5t30 13l299 299q13 12 13 31q0 17 -12.5 29.5t-29.5 12.5q-19 0 -31 -13zM158 -30l299 299q12 12 12 29q0 18 -12.5 30.5t-30.5 12.5q-17 0 -29 -12
l-299 -299q-12 -12 -12 -29q0 -18 12.5 -30.5t30.5 -12.5q17 0 29 12z" />
    <glyph glyph-name="maximize" unicode="&#xe7e0;" 
d="M299 768v-128q0 -18 -12.5 -30.5t-30.5 -12.5h-128v0q-18 0 -30.5 -12.5t-12.5 -30t12.5 -30t30.5 -12.5v0h128q53 0 90.5 37.5t37.5 90.5v128v0q0 18 -12.5 30.5t-30 12.5t-30 -12.5t-12.5 -30.5v0zM896 597h-128q-18 0 -30.5 12.5t-12.5 30.5v128q0 18 -12.5 30.5
t-30 12.5t-30 -12.5t-12.5 -30.5v-128q0 -53 37.5 -90.5t90.5 -37.5h128q18 0 30.5 12.5t12.5 30t-12.5 30t-30.5 12.5zM725 0v128q0 18 12.5 30.5t30.5 12.5h128q18 0 30.5 12.5t12.5 30t-12.5 30t-30.5 12.5h-128q-53 0 -90.5 -37.5t-37.5 -90.5v-128q0 -18 12.5 -30.5
t30 -12.5t30 12.5t12.5 30.5v0zM128 171h128v0q18 0 30.5 -12.5t12.5 -30.5v-128q0 -18 12.5 -30.5t30 -12.5t30 12.5t12.5 30.5v128q0 53 -37.5 90.5t-90.5 37.5h-128q-18 0 -30.5 -12.5t-12.5 -30t12.5 -30t30.5 -12.5z" />
    <glyph glyph-name="menu" unicode="&#xe7e1;" 
d="M128 341h768q18 0 30.5 12.5t12.5 30.5t-12.5 30.5t-30.5 12.5h-768q-18 0 -30.5 -12.5t-12.5 -30.5t12.5 -30.5t30.5 -12.5zM128 597h768q18 0 30.5 12.5t12.5 30.5t-12.5 30.5t-30.5 12.5h-768q-18 0 -30.5 -12.5t-12.5 -30.5t12.5 -30.5t30.5 -12.5zM128 85h768
q18 0 30.5 12.5t12.5 30.5t-12.5 30.5t-30.5 12.5h-768q-18 0 -30.5 -12.5t-12.5 -30.5t12.5 -30.5t30.5 -12.5z" />
    <glyph glyph-name="message-circle" unicode="&#xe7e2;" 
d="M358 122q6 2 13 2q10 0 19 -5q28 -14 69.5 -24t72.5 -10h1q82 0 166 52t120 125q15 28 24.5 69.5t9.5 72.5v1v19q-6 122 -92 208.5t-206 92.5h-22h-1q-31 0 -72.5 -10t-69.5 -24q-73 -36 -125 -120t-52 -166v-1q0 -31 10 -72.5t24 -69.5q5 -9 5 -19q0 -7 -2 -13l-55 -163
l163 55v0zM896 224q-47 -93 -153 -158.5t-209 -65.5h-2q-35 0 -83 10.5t-81 24.5l-226 -76q-7 -2 -14 -2q-18 0 -30.5 12.5t-12.5 30.5q0 7 3 13l75 227q-14 33 -24.5 81.5t-10.5 83.5q0 104 65.5 210t158.5 153q35 17 88 30t92 13h1h24q155 -9 264 -118.5t118 -265.5v-22
v-1q0 -39 -12.5 -92t-30.5 -88v0z" />
    <glyph glyph-name="message-square" unicode="&#xe7e3;" 
d="M269 201q12 12 30 12h512q17 0 29.5 12.5t12.5 30.5v427q0 17 -12.5 29.5t-29.5 12.5h-598q-17 0 -29.5 -12.5t-12.5 -29.5v-580zM158 -30q-20 -20 -46.5 -9.5t-26.5 39.5v683q0 53 37.5 90.5t90.5 37.5h598q53 0 90.5 -37.5t37.5 -90.5v-427q0 -53 -37.5 -90.5
t-90.5 -37.5h-495z" />
    <glyph glyph-name="mic-off" unicode="&#xe7e4;" 
d="M13 823l938 -939q13 -11 30 -11t29.5 12.5t12.5 29.5t-11 30l-939 938q-12 13 -30 13t-30.5 -12.5t-12.5 -30.5t13 -30zM342 512v-128q0 -71 50 -121t120 -50q29 0 64.5 14.5t56.5 35.5q12 13 12 30.5t-12.5 30t-30 12.5t-29.5 -12q-11 -11 -28.5 -18t-32.5 -7
q-35 0 -60 24.5t-25 60.5v128q0 17 -12.5 29.5t-30 12.5t-30 -12.5t-12.5 -29.5zM683 497v228v0q0 71 -50 121t-121 50q-57 0 -106 -40t-61 -97q-1 -4 -1 -9q0 -17 12.5 -29.5t30.5 -12.5q14 0 26.5 10t15.5 24q5 28 29.5 48t53.5 20q36 0 61 -25t25 -60v0v-228
q0 -17 12.5 -29.5t30 -12.5t30 12.5t12.5 29.5zM695 202q-31 -31 -84.5 -53.5t-98.5 -22.5q-106 0 -181 75t-75 181v1v86q0 18 -12.5 30.5t-30 12.5t-30 -12.5t-12.5 -30.5v-85v-2q0 -93 45.5 -171.5t124.5 -124.5t171 -46q60 0 131 30t113 73q12 12 12 29q0 18 -12.5 30.5
t-30 12.5t-30.5 -13zM768 469v-85q0 -23 -4 -45q-1 -4 -1 -9q0 -17 12.5 -29.5t30.5 -12.5q15 0 27.5 10.5t14.5 25.5q5 29 5 60v85q0 18 -12.5 30.5t-30 12.5t-30 -12.5t-12.5 -30.5zM470 85v-170q0 -18 12.5 -30.5t30 -12.5t30 12.5t12.5 30.5v170q0 18 -12.5 30.5
t-30 12.5t-30 -12.5t-12.5 -30.5zM342 -128h341q17 0 29.5 12.5t12.5 30t-12.5 30t-29.5 12.5h-341q-18 0 -30.5 -12.5t-12.5 -30t12.5 -30t30.5 -12.5z" />
    <glyph glyph-name="mic" unicode="&#xe7e5;" 
d="M683 725v-341q0 -71 -50 -121t-121 -50t-121 50t-50 121v341q0 71 50 121t121 50t121 -50t50 -121zM512 811q-35 0 -60 -25t-25 -61v-341q0 -35 25 -60t60 -25t60 25t25 60v341q0 36 -25 61t-60 25zM768 469v-85q0 -106 -75 -181t-181 -75t-181 75t-75 181v85v0
q0 18 -12.5 30.5t-30 12.5t-30 -12.5t-12.5 -30.5v0v-85q0 -93 45.5 -171.5t124 -124t171.5 -45.5t171.5 45.5t124 124t45.5 171.5v85q0 18 -12.5 30.5t-30 12.5t-30 -12.5t-12.5 -30.5zM469 85v-170q0 -18 12.5 -30.5t30.5 -12.5t30.5 12.5t12.5 30.5v170q0 18 -12.5 30.5
t-30.5 12.5t-30.5 -12.5t-12.5 -30.5zM341 -128h342q17 0 29.5 12.5t12.5 30t-12.5 30t-29.5 12.5h-342q-17 0 -29.5 -12.5t-12.5 -30t12.5 -30t29.5 -12.5z" />
    <glyph glyph-name="minimize-" unicode="&#xe7e6;" 
d="M384 43q0 -18 12.5 -30.5t30 -12.5t30 12.5t12.5 30.5v256q0 17 -12.5 29.5t-29.5 12.5h-256q-18 0 -30.5 -12.5t-12.5 -30t12.5 -30t30.5 -12.5h213v-213zM640 725q0 18 -12.5 30.5t-30 12.5t-30 -12.5t-12.5 -30.5v-256q0 -17 12.5 -29.5t29.5 -12.5h256
q18 0 30.5 12.5t12.5 30t-12.5 30t-30.5 12.5h-213v213zM627 439l299 299q13 12 13 31q0 17 -12.5 29.5t-29.5 12.5q-19 0 -31 -13l-299 -299q-13 -12 -13 -30t12.5 -30.5t30.5 -12.5t30 13zM158 -30l299 299q12 12 12 29q0 18 -12.5 30.5t-30.5 12.5q-17 0 -29 -12
l-299 -299q-12 -12 -12 -29q0 -18 12.5 -30.5t30.5 -12.5q17 0 29 12z" />
    <glyph glyph-name="minus-circle" unicode="&#xe7e7;" 
d="M512 -85q-95 0 -182 37t-150 100t-100 150t-37 182t37 182t100 150t150 100t182 37t182 -37t150 -100t100 -150t37 -182t-37 -182t-100 -150t-150 -100t-182 -37zM512 0q104 0 192.5 51.5t140 140t51.5 192.5q0 159 -112.5 271.5t-271.5 112.5t-271.5 -112.5
t-112.5 -271.5q0 -104 51.5 -192.5t140 -140t192.5 -51.5zM341 341h342q17 0 29.5 12.5t12.5 30.5t-12.5 30.5t-29.5 12.5h-342q-17 0 -29.5 -12.5t-12.5 -30.5t12.5 -30.5t29.5 -12.5z" />
    <glyph glyph-name="minus-square" unicode="&#xe7e8;" 
d="M171 683v-598q0 -17 12.5 -29.5t29.5 -12.5h598q17 0 29.5 12.5t12.5 29.5v598q0 17 -12.5 29.5t-29.5 12.5h-598q-17 0 -29.5 -12.5t-12.5 -29.5zM85 683q0 53 37.5 90.5t90.5 37.5h598q53 0 90.5 -37.5t37.5 -90.5v-598v0q0 -53 -37.5 -90.5t-90.5 -37.5h-598
q-53 0 -90.5 37.5t-37.5 90.5v598zM341 341h342q17 0 29.5 12.5t12.5 30.5t-12.5 30.5t-29.5 12.5h-342q-17 0 -29.5 -12.5t-12.5 -30.5t12.5 -30.5t29.5 -12.5z" />
    <glyph glyph-name="minus" unicode="&#xe7e9;" 
d="M213 341h598q17 0 29.5 12.5t12.5 30.5t-12.5 30.5t-29.5 12.5h-598q-17 0 -29.5 -12.5t-12.5 -30.5t12.5 -30.5t29.5 -12.5z" />
    <glyph glyph-name="monitor" unicode="&#xe7ea;" 
d="M128 682v-426v0q0 -18 12.5 -30.5t29.5 -12.5h684q17 0 29.5 13t12.5 30v426v1q0 17 -12.5 29.5t-29.5 12.5h-684q-17 0 -29.5 -12.5t-12.5 -30.5zM43 682v1q0 52 37 89.5t90 38.5h684q53 0 90 -37.5t37 -90.5v-1v-426v0q0 -53 -37 -90.5t-90 -37.5h-684q-53 0 -90 37.5
t-37 90.5v0v426zM341 -43h342q17 0 29.5 12.5t12.5 30.5t-12.5 30.5t-29.5 12.5h-342q-17 0 -29.5 -12.5t-12.5 -30.5t12.5 -30.5t29.5 -12.5zM469 171v-171q0 -18 12.5 -30.5t30.5 -12.5t30.5 12.5t12.5 30.5v171q0 17 -12.5 29.5t-30.5 12.5t-30.5 -12.5t-12.5 -29.5z" />
    <glyph glyph-name="moon" unicode="&#xe7eb;" 
d="M476.5 348.5q-41.5 41.5 -71 112t-29.5 129.5q0 60 20 116q-93 -33 -159 -127.5t-66 -193.5q0 -93 46 -171.5t124.5 -124.5t171.5 -46q99 0 193.5 66t127.5 159q-56 -20 -116 -20q-59 0 -129.5 29.5t-112 71zM938 345q-9 -105 -69.5 -194.5t-155 -141.5t-200.5 -52
q-116 0 -214.5 57.5t-156 156t-57.5 214.5q0 106 52 200.5t141.5 155t194.5 69.5q28 3 41.5 -21t-2.5 -46q-21 -29 -36 -73.5t-15 -79.5q0 -106 75.5 -181.5t181.5 -75.5q35 0 79.5 15t72.5 36q23 16 47 2.5t21 -41.5z" />
    <glyph glyph-name="more-horizontal" unicode="&#xe7ec;" 
d="M512 256q-53 0 -90.5 37.5t-37.5 90.5t37.5 90.5t90.5 37.5t90.5 -37.5t37.5 -90.5t-37.5 -90.5t-90.5 -37.5zM512 341q18 0 30.5 12.5t12.5 30.5t-12.5 30.5t-30.5 12.5t-30.5 -12.5t-12.5 -30.5t12.5 -30.5t30.5 -12.5zM853 256q-53 0 -90.5 37.5t-37.5 90.5t37.5 90.5
t90.5 37.5t90.5 -37.5t37.5 -90.5t-37.5 -90.5t-90.5 -37.5zM853.5 341q17.5 0 30 12.5t12.5 30.5t-12.5 30.5t-30 12.5t-30 -12.5t-12.5 -30.5t12.5 -30.5t30 -12.5zM171 256q-53 0 -90.5 37.5t-37.5 90.5t37.5 90.5t90.5 37.5t90.5 -37.5t37.5 -90.5t-37.5 -90.5
t-90.5 -37.5zM170.5 341q17.5 0 30 12.5t12.5 30.5t-12.5 30.5t-30 12.5t-30 -12.5t-12.5 -30.5t12.5 -30.5t30 -12.5z" />
    <glyph glyph-name="more-vertical" unicode="&#xe7ed;" 
d="M512 256q-53 0 -90.5 37.5t-37.5 90.5t37.5 90.5t90.5 37.5t90.5 -37.5t37.5 -90.5t-37.5 -90.5t-90.5 -37.5zM512 341q18 0 30.5 12.5t12.5 30.5t-12.5 30.5t-30.5 12.5t-30.5 -12.5t-12.5 -30.5t12.5 -30.5t30.5 -12.5zM512 597q-53 0 -90.5 37.5t-37.5 90.5t37.5 90.5
t90.5 37.5t90.5 -37.5t37.5 -90.5t-37.5 -90.5t-90.5 -37.5zM512 683v0q18 0 30.5 12.5t12.5 30t-12.5 30t-30.5 12.5v0q-18 0 -30.5 -12.5t-12.5 -30t12.5 -30t30.5 -12.5zM512 -85q-53 0 -90.5 37.5t-37.5 90.5t37.5 90.5t90.5 37.5t90.5 -37.5t37.5 -90.5t-37.5 -90.5
t-90.5 -37.5zM512 0v0q18 0 30.5 12.5t12.5 30t-12.5 30t-30.5 12.5v0q-18 0 -30.5 -12.5t-12.5 -30t12.5 -30t30.5 -12.5v0z" />
    <glyph glyph-name="move" unicode="&#xe7ee;" 
d="M243 482q12 12 12 29q0 18 -12.5 30.5t-29.5 12.5t-30 -12l-128 -128q-12 -12 -12 -30t12 -30l128 -128q13 -13 31 -13t30.5 12.5t12.5 29.5q0 19 -14 31l-97 98zM610 653q12 -12 29 -12q18 0 30.5 12.5t12.5 29.5t-12 30l-128 128q-12 12 -30 12t-30 -12l-128 -128
q-12 -13 -12 -30t12.5 -29.5t30.5 -12.5q17 0 29 12l98 97zM414 115q-12 14 -31 14q-17 0 -29.5 -12.5t-12.5 -30.5t13 -31l128 -128q12 -12 30 -12t30 12l128 128q12 13 12 30t-12.5 29.5t-30.5 12.5q-17 0 -29 -12l-98 -97zM781 286q-12 -12 -12 -29q0 -18 12.5 -30.5
t29.5 -12.5t30 12l128 128q12 12 12 30t-12 30l-128 128q-13 12 -30 12t-29.5 -12.5t-12.5 -30.5q0 -17 12 -29l97 -98zM85 341h854q17 0 29.5 12.5t12.5 30.5t-12.5 30.5t-29.5 12.5h-854q-17 0 -29.5 -12.5t-12.5 -30.5t12.5 -30.5t29.5 -12.5zM469 811v-854
q0 -17 12.5 -29.5t30.5 -12.5t30.5 12.5t12.5 29.5v854q0 17 -12.5 29.5t-30.5 12.5t-30.5 -12.5t-12.5 -29.5z" />
    <glyph glyph-name="music" unicode="&#xe7ef;" 
d="M384 213v0q18 0 30.5 -12.5t12.5 -29.5v-86q0 -53 -37.5 -90.5t-90.5 -37.5h-86q-53 0 -90.5 37.5t-37.5 90.5t37.5 90.5t90.5 37.5h171zM341 128h-128q-17 0 -29.5 -12.5t-12.5 -30t12.5 -30t29.5 -12.5h86q17 0 29.5 12.5t12.5 29.5v43zM896 299q18 0 30.5 -12.5
t12.5 -30.5v-85q0 -53 -37.5 -90.5t-90.5 -37.5h-86q-53 0 -90.5 37.5t-37.5 90.5t37.5 90.5t90.5 37.5h171zM853 213h-128q-17 0 -29.5 -12.5t-12.5 -30t12.5 -30t29.5 -12.5h86q17 0 29.5 12.5t12.5 30.5v42zM853 718v-462q0 -18 12.5 -30.5t30.5 -12.5t30.5 12.5
t12.5 30.5v512q0 18 -12.5 30.5t-30.5 12.5q-4 0 -7 -1l-512 -85q-15 -3 -25.5 -15t-10.5 -27v-512q0 -18 12.5 -30.5t30.5 -12.5t30.5 12.5t12.5 30.5v476z" />
    <glyph glyph-name="navigation-" unicode="&#xe7f0;" 
d="M294 52l197 113q10 6 21 6t21 -6l197 -113l-218 593zM235 -80q-26 -15 -49 4.5t-13 47.5l299 811q10 28 40 28t40 -28l299 -811q10 -28 -13 -47.5t-48 -4.5l-278 159l-278 -159h1z" />
    <glyph glyph-name="navigation" unicode="&#xe7f1;" 
d="M480 340q10 -3 19 -12t12 -19l56 -226l282 595l-595 -282zM118 343q-29 7 -32 37t24 43l810 384q28 12 49 -9t8 -48l-384 -811q-13 -27 -42.5 -24t-37.5 32l-79 316z" />
    <glyph glyph-name="octagon" unicode="&#xe7f2;" 
d="M128 543v-318l225 -225h318l225 225v318l-225 225h-318zM335 853h354q17 0 30 -12l250 -250q12 -13 12 -30v-354q0 -17 -12 -30l-250 -250q-13 -12 -30 -12h-354q-17 0 -30 12l-250 250q-12 13 -12 30v354q0 17 12 30l250 250q13 12 30 12z" />
    <glyph glyph-name="percent" unicode="&#xe7f3;" 
d="M781 713l-598 -598q-12 -12 -12 -29q0 -18 12.5 -30.5t30.5 -12.5q17 0 29 12l598 598q13 12 13 30t-12.5 30.5t-30.5 12.5t-30 -13zM277.5 469q-61.5 0 -105.5 44t-44 105.5t44 105.5t105.5 44t105.5 -44t44 -105.5t-44 -105.5t-105.5 -44zM277.5 555q26.5 0 45 18.5
t18.5 45t-18.5 45.5t-45 19t-45.5 -19t-19 -45.5t19 -45t45.5 -18.5zM747 0q-62 0 -106 44t-44 105.5t44 105.5t105.5 44t105.5 -44t44 -105.5t-44 -105.5t-105 -44v0zM746.5 85q26.5 0 45.5 19t19 45.5t-19 45t-45.5 18.5t-45 -18.5t-18.5 -45t18.5 -45.5t45 -19z" />
    <glyph glyph-name="pause-circle" unicode="&#xe7f4;" 
d="M512 -85q-95 0 -182 37t-150 100t-100 150t-37 182t37 182t100 150t150 100t182 37t182 -37t150 -100t100 -150t37 -182t-37 -182t-100 -150t-150 -100t-182 -37zM512 0q104 0 192.5 51.5t140 140t51.5 192.5q0 159 -112.5 271.5t-271.5 112.5t-271.5 -112.5
t-112.5 -271.5q0 -104 51.5 -192.5t140 -140t192.5 -51.5zM469 256v256v0q0 18 -12.5 30.5t-30 12.5t-30 -12.5t-12.5 -30.5v0v-256q0 -18 12.5 -30.5t30 -12.5t30 12.5t12.5 30.5zM640 256v256q0 18 -12.5 30.5t-30 12.5t-30 -12.5t-12.5 -30.5v-256q0 -18 12.5 -30.5
t30 -12.5t30 12.5t12.5 30.5z" />
    <glyph glyph-name="pause" unicode="&#xe7f5;" 
d="M299 683v-598h85v598h-85zM256 768h171q17 0 29.5 -12.5t12.5 -30.5v-682q0 -18 -12.5 -30.5t-29.5 -12.5h-171q-18 0 -30.5 12.5t-12.5 30.5v682q0 18 12.5 30.5t30.5 12.5zM640 683v-598h85v598h-85zM597 768h171q18 0 30.5 -12.5t12.5 -30.5v-682q0 -18 -12.5 -30.5
t-30.5 -12.5h-171q-17 0 -29.5 12.5t-12.5 30.5v682q0 18 12.5 30.5t29.5 12.5z" />
    <glyph glyph-name="package" unicode="&#xe7f6;" 
d="M493 796l-341 -171q-10 -5 -17 -16t-7 -22v-406q0 -27 23 -39l342 -170q9 -5 19 -5t19 5l341 170q10 5 17 16.5t7 21.5v407q0 11 -7 22t-17 16l-341 171q-9 4 -19 4t-19 -4v0zM569 872l341 -170q30 -15 50.5 -48.5t20.5 -66.5v-407q0 -32 -20.5 -65.5t-50.5 -48.5
l-341 -171q-27 -13 -57 -13t-57 13l-342 171q-29 15 -49.5 48.5t-20.5 65.5v1v406q0 33 20.5 66.5t50.5 48.5l341 170q27 14 57 14t57 -14zM118 671q-8 4 -18 4q-17 0 -30 -12.5t-13 -29.5q0 -11 7 -22t16 -16l413 -206q9 -5 19 -5t19 5l413 206q9 5 16 16t7 22
q0 17 -13 29.5t-30 12.5q-10 0 -18 -4l-394 -197zM555 -75v502q0 17 -12.5 29.5t-30.5 12.5t-30.5 -12.5t-12.5 -29.5v-502q0 -18 12.5 -30.5t30.5 -12.5t30.5 12.5t12.5 30.5zM280 709l426 -214q9 -4 18 -4q18 0 30.5 12.5t12.5 30.5q0 10 -6.5 21t-16.5 16l-426 214
q-9 4 -18 4q-18 0 -30.5 -12.5t-12.5 -30.5q0 -10 6.5 -21t16.5 -16z" />
    <glyph glyph-name="phone-missed" unicode="&#xe7f7;" 
d="M951 841l-256 -256q-13 -13 -13 -31t12.5 -30.5t30.5 -12.5t30 14l256 256q13 12 13 30t-12.5 30.5t-29.5 12.5q-18 0 -31 -13zM695 781l256 -256q13 -12 30 -12t29.5 12.5t12.5 29.5t-12 30l-256 256q-12 12 -29 12q-18 0 -30.5 -12.5t-12.5 -30.5q0 -17 12 -29z
M896 129v2q0 15 -11 27.5t-26 15.5q-67 8 -130 32q-7 3 -15 3q-18 0 -30 -12l-54 -55q-11 -10 -25 -12t-27 5q-72 41 -152 121t-121 152q-6 10 -6 21q0 18 13 31l54 54q19 19 9 45q-23 63 -32 129q-2 16 -14.5 26.5t-28.5 10.5h-129q-17 0 -30 -12.5t-13 -30.5q0 -1 1 -3
q8 -79 44.5 -182.5t80.5 -170.5q39 -61 110.5 -132.5t133.5 -111.5q67 -43 169.5 -79.5t181.5 -44.5h4q17 0 30 12.5t13 30.5v0v128v0zM981 1v-1q0 -23 -12 -50.5t-29 -43.5q-16 -14 -41.5 -24t-45.5 -10q-7 0 -13 1q-87 9 -201 49.5t-187 87.5q-69 44 -148 123t-122 147
q-48 74 -89 188.5t-50 202.5v11q0 21 9.5 46.5t23.5 40.5q16 17 44 29.5t51 12.5h129h1q46 0 83.5 -32.5t43.5 -78.5q8 -57 28 -111q13 -35 5 -72t-34 -64l-31 -30q32 -50 89.5 -107.5t107.5 -89.5l31 31q15 16 41.5 26.5t48.5 10.5q23 0 45 -8q54 -20 112 -28
q45 -6 77.5 -43.5t32.5 -83.5v-2v-128v0z" />
    <glyph glyph-name="phone-forwarded" unicode="&#xe7f8;" 
d="M780 500q-13 -13 -13 -31t12.5 -30.5t30.5 -12.5t31 13l170 171q13 12 13 30t-13 30l-170 171q-13 12 -30 12t-29.5 -12.5t-12.5 -30.5q0 -17 11 -29l141 -141zM640 597h341q18 0 30.5 12.5t12.5 30.5t-12.5 30.5t-30.5 12.5h-341q-18 0 -30.5 -12.5t-12.5 -30.5
t12.5 -30.5t30.5 -12.5zM896 129v2q0 15 -11 27.5t-26 15.5q-67 8 -130 32q-7 3 -15 3q-18 0 -30 -12l-54 -55q-11 -10 -25 -12t-27 5q-72 41 -152 121t-121 152q-6 10 -6 21q0 18 13 31l54 54q19 19 9 45q-23 63 -32 129q-2 16 -14.5 26.5t-28.5 10.5h-129q-17 0 -30 -12.5
t-13 -30.5q0 -1 1 -3q8 -79 44.5 -182.5t80.5 -170.5q39 -61 110.5 -132.5t133.5 -111.5q67 -43 169.5 -79.5t181.5 -44.5h4q17 0 30 12.5t13 30.5v0v128v0zM981 1v-1q0 -23 -12 -50.5t-29 -43.5q-16 -14 -41.5 -24t-45.5 -10q-7 0 -13 1q-87 9 -201 49.5t-187 87.5
q-69 44 -148 123t-122 147q-48 74 -89 188.5t-50 202.5v11q0 21 9.5 46.5t23.5 40.5q16 17 44 29.5t51 12.5h129h1q46 0 83.5 -32.5t43.5 -78.5q8 -57 28 -111q13 -35 5 -72t-34 -64l-31 -30q32 -50 89.5 -107.5t107.5 -89.5l31 31q15 16 41.5 26.5t48.5 10.5q23 0 45 -8
q54 -20 112 -28q45 -6 77.5 -43.5t32.5 -83.5v-2v-128v0z" />
    <glyph glyph-name="phone-incoming" unicode="&#xe7f9;" 
d="M725 768q0 18 -12.5 30.5t-30 12.5t-30 -12.5t-12.5 -30.5v-256v0q0 -18 12.5 -30.5t30.5 -12.5h256q17 0 29.5 12.5t12.5 30.5t-12.5 30.5t-29.5 12.5h-214v213zM951 841l-299 -299q-13 -12 -13 -31q0 -17 12.5 -29.5t30.5 -12.5t31 13l298 299q13 12 13 30t-12.5 30.5
t-29.5 12.5q-18 0 -31 -13zM896 129v2q0 15 -11 27.5t-26 15.5q-67 8 -130 32q-7 3 -15 3q-18 0 -30 -12l-54 -55q-11 -10 -25 -12t-27 5q-72 41 -152 121t-121 152q-6 10 -6 21q0 18 13 31l54 54q19 19 9 45q-23 63 -32 129q-2 16 -14.5 26.5t-28.5 10.5h-129
q-17 0 -30 -12.5t-13 -30.5q0 -1 1 -3q8 -79 44.5 -182.5t80.5 -170.5q39 -61 110.5 -132.5t133.5 -111.5q67 -43 169.5 -79.5t181.5 -44.5h4q17 0 30 12.5t13 30.5v0v128v0zM981 1v-1q0 -23 -12 -50.5t-29 -43.5q-16 -14 -41.5 -24t-45.5 -10q-7 0 -13 1q-87 9 -201 49.5
t-187 87.5q-69 44 -148 123t-122 147q-48 74 -89 188.5t-50 202.5v11q0 21 9.5 46.5t23.5 40.5q16 17 44 29.5t51 12.5h129h1q46 0 83.5 -32.5t43.5 -78.5q8 -57 28 -111q13 -35 5 -72t-34 -64l-31 -30q32 -50 89.5 -107.5t107.5 -89.5l31 31q15 16 41.5 26.5t48.5 10.5
q23 0 45 -8q54 -20 112 -28q45 -6 77.5 -43.5t32.5 -83.5v-2v-128v0z" />
    <glyph glyph-name="phone-outgoing" unicode="&#xe7fa;" 
d="M939 768v-213q0 -18 12.5 -30.5t30 -12.5t30 12.5t12.5 30.5v256v0q0 17 -12.5 29.5t-30.5 12.5h-256q-17 0 -29.5 -12.5t-12.5 -30t12.5 -30t29.5 -12.5h214zM713 482l298 299q13 12 13 30t-12.5 30.5t-29.5 12.5q-18 0 -31 -13l-299 -299q-13 -12 -13 -31
q0 -17 12.5 -29.5t30.5 -12.5t31 13zM896 131q0 17 -10 30t-26 15q-67 9 -130 32q-7 3 -15 3q-17 0 -29 -12l-55 -55q-12 -12 -30 -12q-11 0 -21 5q-72 41 -151.5 121t-120.5 151q-5 10 -5 22q0 17 12 30l54 54q12 12 12 30q0 7 -2 15q-24 62 -33 129q-2 15 -14.5 25.5
t-27.5 10.5h-1h-128q-17 0 -29.5 -12.5t-12.5 -29.5v-3q8 -79 44.5 -182t79.5 -170q40 -62 111 -133t133 -110q66 -43 168 -79.5t180 -44.5q2 -1 4 -1q18 0 30.5 12.5t12.5 30.5v0v128zM981 1v-1q0 -23 -12 -50.5t-29 -43.5q-16 -14 -41.5 -24t-45.5 -10q-7 0 -13 1
q-87 9 -201 49.5t-187 87.5q-69 44 -148 123t-122 147q-48 74 -89 188.5t-50 202.5v11q0 21 9.5 46.5t23.5 40.5q16 17 44 29.5t51 12.5h129h1q46 0 83.5 -32.5t43.5 -78.5q8 -57 28 -111q13 -35 5 -72t-34 -64l-31 -30q32 -50 89.5 -107.5t107.5 -89.5l31 31
q15 16 41.5 26.5t48.5 10.5q23 0 45 -8q54 -20 112 -28q45 -6 77.5 -43.5t32.5 -83.5v-2v-128v0z" />
    <glyph glyph-name="pie-chart" unicode="&#xe7fb;" 
d="M866 235q-41 -97 -145 -166t-209 -69q-104 0 -192.5 51.5t-140 140t-51.5 192.5t67.5 207t162.5 145q11 5 18.5 16.5t7.5 22.5q0 18 -12.5 30.5t-30.5 12.5q-9 0 -17 -4q-116 -51 -198.5 -177t-82.5 -253q0 -95 37 -182t100 -150t150 -100t182 -37q129 0 255.5 84
t176.5 202q3 8 3 16q0 18 -12.5 30.5t-29.5 12.5q-12 0 -23.5 -7.5t-15.5 -17.5v0zM981 384q0 -18 -12.5 -30.5t-29.5 -12.5h-427v0q-18 0 -30.5 12.5t-12.5 30.5v427q0 17 12.5 29.5t30.5 12.5v0q95 0 182 -37t150 -100t100 -150t37 -182zM783.5 655.5
q-39.5 39.5 -106.5 71.5t-122 39v-339h339q-7 55 -39 122t-71.5 106.5z" />
    <glyph glyph-name="play-circle" unicode="&#xe7fc;" 
d="M512 -85q-95 0 -182 37t-150 100t-100 150t-37 182t37 182t100 150t150 100t182 37t182 -37t150 -100t100 -150t37 -182t-37 -182t-100 -150t-150 -100t-182 -37zM512 0q104 0 192.5 51.5t140 140t51.5 192.5q0 159 -112.5 271.5t-271.5 112.5t-271.5 -112.5
t-112.5 -271.5q0 -104 51.5 -192.5t140 -140t192.5 -51.5zM469 293l137 91l-137 91v-182zM450 590l256 -171q8 -5 13.5 -15.5t5.5 -19.5t-5.5 -19.5t-13.5 -15.5l-256 -171q-10 -7 -23 -7q-18 0 -30.5 12.5t-12.5 29.5v0v342v0q0 17 12.5 29.5t30.5 12.5q13 0 23 -7z" />
    <glyph glyph-name="play" unicode="&#xe7fd;" 
d="M256 78l476 306l-476 306v-612zM236 804l598 -384q8 -5 13.5 -15.5t5.5 -20.5t-5.5 -20.5t-13.5 -15.5l-598 -384q-10 -7 -23 -7q-17 0 -29.5 12.5t-12.5 30.5v768q0 18 12.5 30.5t29.5 12.5q13 0 23 -7v0z" />
    <glyph glyph-name="phone-off" unicode="&#xe7fe;" 
d="M486 358q-13 13 -31 13t-30.5 -12.5t-12.5 -30.5t13 -30q29 -29 74.5 -63.5t80.5 -54.5q10 -6 21 -6q18 0 30 13l54 54q13 12 30 12q8 0 15 -3q63 -23 129 -32q15 -2 26 -14.5t11 -27.5v0v-129v0q0 -18 -12.5 -30.5t-30.5 -12.5h-4q-78 9 -180.5 45.5t-168.5 79.5
q-73 46 -135 108q-12 13 -30 13t-30.5 -12.5t-12.5 -30.5t13 -30q28 -29 72 -64t77 -56q74 -48 187 -88t200 -49q6 -1 12 -1q53 0 90.5 37.5t37.5 90.5v0v128v1q0 46 -32.5 83t-77.5 44q-57 7 -111 27q-22 8 -45 8q-22 0 -48 -10.5t-42 -26.5l-31 -30q-59 37 -108 87z
M257 372q-43 67 -79.5 169t-44.5 181v3q0 18 12.5 30.5t29.5 12.5h128q17 0 29 -10.5t14 -26.5q9 -66 32 -129q3 -7 3 -15q0 -18 -12 -30l-54 -54q-12 -12 -12 -30q0 -17 12.5 -29.5t30.5 -12.5q17 0 29 12l54 54q16 15 26.5 41.5t10.5 48.5q0 23 -8 45q-20 54 -27 110
q-7 46 -44 78.5t-83 32.5h-1h-128q-53 0 -90.5 -37.5t-37.5 -90.5q0 -6 1 -12q9 -87 49.5 -200.5t88.5 -186.5q5 -8 15.5 -13.5t19.5 -5.5q18 0 30.5 12.5t12.5 30.5q0 12 -7 22v0zM951 883l-939 -938q-11 -13 -11 -30t12.5 -29.5t29.5 -12.5t30 11l938 939q13 12 13 30
t-12.5 30.5t-30.5 12.5t-30 -13z" />
    <glyph glyph-name="plus-square" unicode="&#xe7ff;" 
d="M171 683v-598q0 -17 12.5 -29.5t29.5 -12.5h598q17 0 29.5 12.5t12.5 29.5v598q0 17 -12.5 29.5t-29.5 12.5h-598q-17 0 -29.5 -12.5t-12.5 -29.5zM85 683q0 53 37.5 90.5t90.5 37.5h598q53 0 90.5 -37.5t37.5 -90.5v-598v0q0 -53 -37.5 -90.5t-90.5 -37.5h-598
q-53 0 -90.5 37.5t-37.5 90.5v598zM469 555v-342q0 -17 12.5 -29.5t30.5 -12.5t30.5 12.5t12.5 29.5v342q0 17 -12.5 29.5t-30.5 12.5t-30.5 -12.5t-12.5 -29.5zM341 341h342q17 0 29.5 12.5t12.5 30.5t-12.5 30.5t-29.5 12.5h-342q-17 0 -29.5 -12.5t-12.5 -30.5
t12.5 -30.5t29.5 -12.5z" />
    <glyph glyph-name="plus-circle" unicode="&#xe800;" 
d="M512 -85q-95 0 -182 37t-150 100t-100 150t-37 182t37 182t100 150t150 100t182 37t182 -37t150 -100t100 -150t37 -182t-37 -182t-100 -150t-150 -100t-182 -37zM512 0q104 0 192.5 51.5t140 140t51.5 192.5q0 159 -112.5 271.5t-271.5 112.5t-271.5 -112.5
t-112.5 -271.5q0 -104 51.5 -192.5t140 -140t192.5 -51.5zM469 555v-342q0 -17 12.5 -29.5t30.5 -12.5t30.5 12.5t12.5 29.5v342q0 17 -12.5 29.5t-30.5 12.5t-30.5 -12.5t-12.5 -29.5zM341 341h342q17 0 29.5 12.5t12.5 30.5t-12.5 30.5t-29.5 12.5h-342q-17 0 -29.5 -12.5
t-12.5 -30.5t12.5 -30.5t29.5 -12.5z" />
    <glyph glyph-name="plus" unicode="&#xe801;" 
d="M469 683v-598q0 -17 12.5 -29.5t30.5 -12.5t30.5 12.5t12.5 29.5v598q0 17 -12.5 29.5t-30.5 12.5t-30.5 -12.5t-12.5 -29.5zM213 341h598q17 0 29.5 12.5t12.5 30.5t-12.5 30.5t-29.5 12.5h-598q-17 0 -29.5 -12.5t-12.5 -30.5t12.5 -30.5t29.5 -12.5z" />
    <glyph glyph-name="phone" unicode="&#xe802;" 
d="M896 172v2q0 15 -11 27.5t-26 14.5q-67 9 -130 33q-7 2 -15 2q-18 0 -30 -12l-54 -54q-11 -10 -25 -12t-27 5q-72 41 -152 121t-121 152q-6 10 -6 21q0 18 13 30l54 54q19 20 10 46q-24 63 -33 129q-2 16 -14.5 26.5t-28.5 10.5h-129q-17 0 -30 -12.5t-13 -30.5
q0 -2 1 -3q8 -80 44.5 -183t80.5 -170q39 -62 110.5 -133.5t133.5 -110.5q67 -43 169.5 -79.5t181.5 -45.5h4q17 0 30 12.5t13 30.5v0v129v0zM981 44v-1q0 -23 -12 -51t-29 -44q-16 -14 -41.5 -23.5t-45.5 -9.5h-13q-87 10 -201 50t-187 88q-69 43 -148 122t-122 148
q-48 74 -89 188.5t-50 201.5v12q0 21 9.5 46t23.5 40q16 18 44 30t51 12h129h1q46 0 83.5 -32.5t43.5 -78.5q8 -57 28 -110q13 -36 5 -72.5t-34 -63.5l-31 -31q32 -49 89.5 -106.5t107.5 -89.5l31 31q15 15 41.5 26t48.5 11q23 0 45 -8q54 -20 112 -28q46 -6 78 -43.5
t32 -83.5v-3v-127z" />
    <glyph glyph-name="power" unicode="&#xe803;" 
d="M753 583q42 -42 71 -112.5t29 -129.5q0 -92 -45.5 -171t-124 -124.5t-171.5 -45.5t-171.5 45.5t-124 124.5t-45.5 171q0 59 29 129.5t71 112.5q13 12 13 30t-12.5 30.5t-30.5 12.5t-31 -13q-82 -82 -111 -192t0 -220t111 -191q62 -62 141.5 -94t160.5 -32t160.5 32
t141.5 94q82 81 111 191t0 220t-111 192q-13 13 -31 13t-30.5 -12.5t-12.5 -30.5t13 -30zM469 811v-427q0 -18 12.5 -30.5t30.5 -12.5t30.5 12.5t12.5 30.5v427q0 17 -12.5 29.5t-30.5 12.5t-30.5 -12.5t-12.5 -29.5z" />
    <glyph glyph-name="printer" unicode="&#xe804;" 
d="M725 768v-256q0 -18 12.5 -30.5t30.5 -12.5t30.5 12.5t12.5 30.5v299q0 17 -12.5 29.5t-30.5 12.5h-512q-18 0 -30.5 -12.5t-12.5 -29.5v-299q0 -18 12.5 -30.5t30.5 -12.5t30.5 12.5t12.5 30.5v256h426zM256 171h-85q-18 0 -30.5 12.5t-12.5 29.5v214q0 17 12.5 29.5
t30.5 12.5h682q18 0 30.5 -12.5t12.5 -29.5v-214q0 -17 -12.5 -29.5t-30.5 -12.5h-85q-18 0 -30.5 -12.5t-12.5 -30.5t12.5 -30.5t30.5 -12.5h85q53 0 90.5 37.5t37.5 90.5v214q0 53 -37.5 90.5t-90.5 37.5h-682q-53 0 -90.5 -37.5t-37.5 -90.5v-214q0 -53 37.5 -90.5
t90.5 -37.5h85q18 0 30.5 12.5t12.5 30.5t-12.5 30.5t-30.5 12.5zM299 0h426v256h-426v-256zM256 341h512q18 0 30.5 -12.5t12.5 -29.5v-342q0 -17 -12.5 -29.5t-30.5 -12.5h-512q-18 0 -30.5 12.5t-12.5 29.5v342q0 17 12.5 29.5t30.5 12.5z" />
    <glyph glyph-name="pocket" unicode="&#xe805;" 
d="M128 683v-256q0 -105 51.5 -193.5t140 -139.5t192.5 -51t192.5 51t140 139.5t51.5 193.5v256q0 17 -12.5 29.5t-30.5 12.5h-682q-18 0 -30.5 -12.5t-12.5 -29.5zM853 811q53 0 90.5 -37.5t37.5 -90.5v-256q0 -96 -37 -183t-100 -149.5t-150 -100t-182 -37.5t-182 37.5
t-150 100t-100 149.5t-37 183v256q0 53 37.5 90.5t90.5 37.5h682zM371 499q-12 12 -29 12q-18 0 -30.5 -12.5t-12.5 -29.5t12 -30l171 -170q12 -13 30 -13t30 13l171 170q13 13 13 31t-12.5 30.5t-30.5 12.5t-30 -14l-141 -140z" />
    <glyph glyph-name="radio" unicode="&#xe806;" 
d="M512 256q-53 0 -90.5 37.5t-37.5 90.5t37.5 90.5t90.5 37.5t90.5 -37.5t37.5 -90.5t-37.5 -90.5t-90.5 -37.5zM512 341q18 0 30.5 12.5t12.5 30.5t-12.5 30.5t-30.5 12.5t-30.5 -12.5t-12.5 -30.5t12.5 -30.5t30.5 -12.5zM663 535q26 -26 44 -70.5t18 -81t-18 -80.5
t-44 -70q-13 -13 -13 -30.5t12.5 -30t30.5 -12.5t30 12q36 37 62 99t26 113t-26 113t-62 98q-12 13 -30 13t-30.5 -12.5t-12.5 -30.5t13 -30zM361 233q-26 26 -44 70.5t-18 81t18 80.5t44 70q13 13 13 30.5t-12.5 30t-30.5 12.5t-30 -13q-36 -36 -62 -98t-26 -113t26 -113
t62 -98q12 -13 30 -13t30.5 12.5t12.5 30.5t-13 30zM783 655q47 -46 80 -125.5t33 -145.5t-33 -145.5t-80 -125.5q-13 -13 -13 -31t12.5 -30.5t30.5 -12.5t31 13q90 90 122 211t0 242t-122 211q-13 13 -31 13t-30.5 -12.5t-12.5 -30.5t13 -31zM241 113q-47 46 -80 125.5
t-33 145.5t33 145.5t80 125.5q11 13 11 30q0 18 -12.5 30.5t-29.5 12.5t-30 -12q-67 -68 -102.5 -155.5t-35.5 -176.5t35.5 -176.5t102.5 -155.5q13 -13 31 -13t30.5 12.5t12.5 30.5t-13 31z" />
    <glyph glyph-name="refresh-ccw" unicode="&#xe807;" 
d="M85 725v0q0 18 -12.5 30.5t-30 12.5t-30 -12.5t-12.5 -30.5v0v-256q0 -17 12.5 -29.5t30.5 -12.5h256v0q17 0 29.5 12.5t12.5 30t-12.5 30t-29.5 12.5v0h-214v213zM939 43q0 -18 12.5 -30.5t30 -12.5t30 12.5t12.5 30.5v256q0 17 -12.5 29.5t-30.5 12.5h-256
q-17 0 -29.5 -12.5t-12.5 -30t12.5 -30t29.5 -12.5h214v-213zM915 526q-42 118 -160 201.5t-243 83.5q-73 0 -161.5 -37t-139.5 -88l-198 -186q-13 -12 -13 -31q0 -17 12.5 -29.5t30.5 -12.5q17 0 29 11l198 186q41 42 112.5 71.5t129.5 29.5q39 0 76 -8q76 -17 148 -81.5
t98 -137.5q4 -12 16 -20.5t24 -8.5q18 0 30.5 12.5t12.5 30.5q0 7 -2 14zM952 330l-198 -186q-41 -42 -112 -71.5t-130 -29.5q-38 0 -76 8q-76 17 -148 81.5t-98 137.5q-4 12 -16 20.5t-24 8.5q-18 0 -30.5 -12.5t-12.5 -30.5q0 -7 3 -14q41 -118 159 -201.5t243 -83.5
q73 0 161.5 37t140.5 88l197 186q13 12 13 31q0 17 -12.5 29.5t-30.5 12.5q-17 0 -29 -11z" />
    <glyph glyph-name="refresh-cw" unicode="&#xe808;" 
d="M725 512q-17 0 -29.5 -12.5t-12.5 -30t12.5 -30t29.5 -12.5h256q18 0 30.5 12.5t12.5 29.5v256q0 18 -12.5 30.5t-30 12.5t-30 -12.5t-12.5 -30.5v-213h-214zM85 256h214q17 0 29.5 12.5t12.5 30t-12.5 30t-29.5 12.5h-256v0q-18 0 -30.5 -12.5t-12.5 -29.5v-256
q0 -18 12.5 -30.5t30 -12.5t30 12.5t12.5 30.5v213zM190 498q33 94 127.5 160.5t194.5 66.5q58 0 129 -29t112 -71l199 -187q12 -11 29 -11q18 0 30.5 12.5t12.5 29.5q0 19 -13 31l-198 186q-52 52 -140 88.5t-161 36.5q-48 0 -94 -11q-95 -22 -185.5 -102t-122.5 -172
q-3 -6 -3 -14q0 -17 12.5 -29.5t30.5 -12.5q12 0 24 8t16 20v0zM13 268l198 -186q52 -52 140 -88.5t161 -36.5q48 0 94 11q95 21 185.5 101.5t122.5 172.5q3 6 3 14q0 17 -12.5 29.5t-30.5 12.5q-12 0 -24 -8t-16 -20q-33 -94 -127.5 -160.5t-194.5 -66.5q-58 0 -129 29
t-112 71l-199 187q-12 11 -29 11q-18 0 -30.5 -12.5t-12.5 -29.5q0 -19 13 -31z" />
    <glyph glyph-name="repeat" unicode="&#xe809;" 
d="M695 542q-13 -12 -13 -30t12.5 -30.5t30.5 -12.5t30 13l171 171q12 12 12 29.5t-12 30.5l-171 171q-12 11 -29 11q-18 0 -30.5 -12.5t-12.5 -29.5t12 -30l141 -140zM171 427v85q0 53 37.5 90.5t90.5 37.5h597q17 0 29.5 12.5t12.5 30t-12.5 30t-29.5 12.5h-597v0
q-88 0 -150.5 -62.5t-62.5 -150.5v-85q0 -18 12.5 -30.5t30 -12.5t30 12.5t12.5 30.5zM329 226q12 13 12 30t-12.5 29.5t-30.5 12.5q-17 0 -29 -12l-171 -170q-12 -13 -12 -30.5t12 -29.5l171 -171q12 -13 30 -13t30.5 12.5t12.5 30.5t-13 30l-141 141zM853 342v-86
q0 -53 -37.5 -90.5t-90.5 -37.5h-597q-17 0 -29.5 -12.5t-12.5 -30t12.5 -30t29.5 -12.5h597v0q88 0 150.5 62.5t62.5 150.5v86q0 17 -12.5 29.5t-30 12.5t-30 -12.5t-12.5 -29.5z" />
    <glyph glyph-name="rewind" unicode="&#xe80a;" 
d="M427 595l-272 -211l272 -211v422zM443 52l-384 298q-16 13 -16 34t16 34l384 298q12 9 26 9q18 0 30.5 -12.5t12.5 -29.5v-598v0q0 -17 -12.5 -29.5t-30.5 -12.5q-14 0 -26 9v0zM896 173v422l-272 -211zM912 52l-384 298q-16 13 -16 34t16 34l384 298q12 9 27 9
q17 0 29.5 -12.5t12.5 -29.5v-598v0q0 -17 -12.5 -29.5t-29.5 -12.5q-15 0 -27 9v0z" />
    <glyph glyph-name="rotate-ccw" unicode="&#xe80b;" 
d="M128 725v0q0 18 -12.5 30.5t-30 12.5t-30 -12.5t-12.5 -30.5v0v-256q0 -17 12.5 -29.5t29.5 -12.5h256v0q18 0 30.5 12.5t12.5 30t-12.5 30t-30.5 12.5v0h-213v213zM152 242q42 -118 160 -201.5t243 -83.5q115 0 213.5 57.5t155.5 155.5t57 214t-57 214t-155.5 155.5
t-213.5 57.5q-73 0 -161.5 -36.5t-140.5 -88.5l-197 -185q-14 -13 -14 -32q0 -17 12.5 -29.5t30.5 -12.5q17 0 30 12l198 186q41 41 112 70.5t130 29.5q36 0 84.5 -12.5t80.5 -29.5q73 -41 124.5 -128.5t51.5 -170.5q0 -93 -45.5 -171.5t-124.5 -124t-171 -45.5
q-100 0 -194.5 66.5t-127.5 161.5q-4 12 -16 20.5t-25 8.5q-18 0 -30.5 -12.5t-12.5 -30.5q0 -7 3 -15z" />
    </font>
</defs>
</svg>
